<svg version="1.1" viewBox="0.0 0.0 717.2178477690288 583.6089238845144" fill="none" stroke="none" stroke-linecap="square" stroke-miterlimit="10" xmlns:xlink="http://www.w3.org/1999/xlink" xmlns="http://www.w3.org/2000/svg"><clipPath id="p.0"><path d="m0 0l717.21783 0l0 583.60895l-717.21783 0l0 -583.60895z" clip-rule="nonzero"/></clipPath><g clip-path="url(#p.0)"><path fill="#ffffff" d="m0 0l717.21783 0l0 583.60895l-717.21783 0z" fill-rule="evenodd"/><path fill="#000000" fill-opacity="0.0" d="m11.87664 57.622047l306.11023 0l0 214.70868l-306.11023 0z" fill-rule="evenodd"/><path stroke="#000000" stroke-width="1.0" stroke-linejoin="round" stroke-linecap="butt" d="m11.87664 57.622047l306.11023 0l0 214.70868l-306.11023 0z" fill-rule="evenodd"/><path fill="#000000" fill-opacity="0.0" d="m338.67978 59.34646l339.74802 0l0 217.29132l-339.74802 0z" fill-rule="evenodd"/><path stroke="#000000" stroke-width="1.0" stroke-linejoin="round" stroke-linecap="butt" d="m338.67978 59.34646l339.74802 0l0 217.29132l-339.74802 0z" fill-rule="evenodd"/><path fill="#000000" fill-opacity="0.0" d="m17.913385 306.8189l256.9449 0l0 214.70868l-256.9449 0z" fill-rule="evenodd"/><path stroke="#000000" stroke-width="1.0" stroke-linejoin="round" stroke-linecap="butt" d="m17.913385 306.8189l256.9449 0l0 214.70868l-256.9449 0z" fill-rule="evenodd"/><path fill="#000000" fill-opacity="0.0" d="m300.73752 311.1286l377.70078 0l0 220.75592l-377.70078 0z" fill-rule="evenodd"/><path stroke="#000000" stroke-width="1.0" stroke-linejoin="round" stroke-linecap="butt" d="m300.73752 311.1286l377.70078 0l0 220.75592l-377.70078 0z" fill-rule="evenodd"/><path fill="#000000" fill-opacity="0.0" d="m187.85301 185.09418c7.2814636 10.925613 6.770462 28.434006 18.170609 34.947495c5.6963196 3.2546082 13.059586 -1.2841187 19.56955 -2.097107c7.200058 -0.89915466 14.527939 3.3961792 21.666672 2.097107c21.440018 -3.9015045 34.544052 -35.740402 31.454056 -57.312332c-1.3937988 -9.730591 -6.0530396 -22.05249 -15.37793 -25.16272c-5.345459 -1.7829437 -11.498322 4.0762177 -16.774292 2.097107c-8.043915 -3.0174103 -17.473938 -9.428818 -25.160095 -5.5905457c-17.55426 8.766129 -35.55478 32.40422 -29.356964 51.020996" fill-rule="evenodd"/><path stroke="#000000" stroke-width="1.0" stroke-linejoin="round" stroke-linecap="butt" d="m187.85301 185.09418c7.2814636 10.925613 6.770462 28.434006 18.170609 34.947495c5.6963196 3.2546082 13.059586 -1.2841187 19.56955 -2.097107c7.200058 -0.89915466 14.527939 3.3961792 21.666672 2.097107c21.440018 -3.9015045 34.544052 -35.740402 31.454056 -57.312332c-1.3937988 -9.730591 -6.0530396 -22.05249 -15.37793 -25.16272c-5.345459 -1.7829437 -11.498322 4.0762177 -16.774292 2.097107c-8.043915 -3.0174103 -17.473938 -9.428818 -25.160095 -5.5905457c-17.55426 8.766129 -35.55478 32.40422 -29.356964 51.020996" fill-rule="evenodd"/><path fill="#000000" fill-opacity="0.0" d="m230.48557 171.81364c-1.5972595 2.3988953 -2.0944824 5.5064545 -2.0944824 8.388458" fill-rule="evenodd"/><path stroke="#000000" stroke-width="1.0" stroke-linejoin="round" stroke-linecap="butt" d="m230.48557 171.81364c-1.5972595 2.3988953 -2.0944824 5.5064545 -2.0944824 8.388458" fill-rule="evenodd"/><path fill="#000000" fill-opacity="0.0" d="m254.95013 169.01837c0 4.1998596 0.32052612 8.506271 -0.7007904 12.580048" fill-rule="evenodd"/><path stroke="#000000" stroke-width="1.0" stroke-linejoin="round" stroke-linecap="butt" d="m254.95013 169.01837c0 4.1998596 0.32052612 8.506271 -0.7007904 12.580048" fill-rule="evenodd"/><path fill="#000000" fill-opacity="0.0" d="m574.36096 169.71548c-6.1698 9.698227 -19.837585 26.167496 -10.485535 32.850403c6.069092 4.3369446 15.695496 -4.034134 22.367432 -0.6981659c11.936035 5.968033 25.495178 14.4232025 38.440918 11.183731c14.245728 -3.5647736 25.56836 -18.661896 29.35437 -32.850403c2.2618408 -8.476624 -2.9873657 -17.297028 -4.892395 -25.860886c-1.2515259 -5.6260376 1.1031494 -14.503555 -4.194214 -16.774277c-14.562744 -6.2422943 -33.94171 -8.850708 -47.527588 -0.6981659c-8.643005 5.186447 -12.803101 15.89563 -16.774292 25.160095" fill-rule="evenodd"/><path stroke="#000000" stroke-width="1.0" stroke-linejoin="round" stroke-linecap="butt" d="m574.36096 169.71548c-6.1698 9.698227 -19.837585 26.167496 -10.485535 32.850403c6.069092 4.3369446 15.695496 -4.034134 22.367432 -0.6981659c11.936035 5.968033 25.495178 14.4232025 38.440918 11.183731c14.245728 -3.5647736 25.56836 -18.661896 29.35437 -32.850403c2.2618408 -8.476624 -2.9873657 -17.297028 -4.892395 -25.860886c-1.2515259 -5.6260376 1.1031494 -14.503555 -4.194214 -16.774277c-14.562744 -6.2422943 -33.94171 -8.850708 -47.527588 -0.6981659c-8.643005 5.186447 -12.803101 15.89563 -16.774292 25.160095" fill-rule="evenodd"/><path fill="#000000" fill-opacity="0.0" d="m607.2126 176.00787c-0.8012085 3.1958618 -1.3989258 6.4900208 -1.3989258 9.784775" fill-rule="evenodd"/><path stroke="#000000" stroke-width="1.0" stroke-linejoin="round" stroke-linecap="butt" d="m607.2126 176.00787c-0.8012085 3.1958618 -1.3989258 6.4900208 -1.3989258 9.784775" fill-rule="evenodd"/><path fill="#000000" fill-opacity="0.0" d="m628.17847 174.61234c3.7955933 -2.2767792 1.402832 9.080338 0 13.2782135" fill-rule="evenodd"/><path stroke="#000000" stroke-width="1.0" stroke-linejoin="round" stroke-linecap="butt" d="m628.17847 174.61234c3.7955933 -2.2767792 1.402832 9.080338 0 13.2782135" fill-rule="evenodd"/><path fill="#000000" fill-opacity="0.0" d="m395.4349 189.9878c3.3626099 10.100433 2.4796143 25.99173 12.580048 29.354324c14.987518 4.9895935 29.906433 -14.940735 37.742798 -28.656174c5.738373 -10.043488 20.772766 -20.182465 16.07611 -30.75328c-6.043976 -13.60321 -19.533295 -30.895584 -34.24936 -28.656158c-15.110321 2.2994232 -15.117096 2.3461456 -30.05249 5.59317c-6.1926575 1.3463287 -5.019989 11.859268 -5.59317 18.170609c-1.1427307 12.583008 -2.1586304 26.444016 3.4960632 37.742783" fill-rule="evenodd"/><path stroke="#000000" stroke-width="1.0" stroke-linejoin="round" stroke-linecap="butt" d="m395.4349 189.9878c3.3626099 10.100433 2.4796143 25.99173 12.580048 29.354324c14.987518 4.9895935 29.906433 -14.940735 37.742798 -28.656174c5.738373 -10.043488 20.772766 -20.182465 16.07611 -30.75328c-6.043976 -13.60321 -19.533295 -30.895584 -34.24936 -28.656158c-15.110321 2.2994232 -15.117096 2.3461456 -30.05249 5.59317c-6.1926575 1.3463287 -5.019989 11.859268 -5.59317 18.170609c-1.1427307 12.583008 -2.1586304 26.444016 3.4960632 37.742783" fill-rule="evenodd"/><path fill="#000000" fill-opacity="0.0" d="m445.75854 180.2021c2.7668457 0.4605713 6.051056 0.8563843 8.385803 -0.6981659" fill-rule="evenodd"/><path stroke="#000000" stroke-width="1.0" stroke-linejoin="round" stroke-linecap="butt" d="m445.75854 180.2021c2.7668457 0.4605713 6.051056 0.8563843 8.385803 -0.6981659" fill-rule="evenodd"/><path fill="#000000" fill-opacity="0.0" d="m446.4567 164.12599c3.2254944 0.536911 6.5148926 0.69815063 9.7847595 0.69815063" fill-rule="evenodd"/><path stroke="#000000" stroke-width="1.0" stroke-linejoin="round" stroke-linecap="butt" d="m446.4567 164.12599c3.2254944 0.536911 6.5148926 0.69815063 9.7847595 0.69815063" fill-rule="evenodd"/><path fill="#000000" fill-opacity="0.0" d="m56.451954 419.23697c5.6043816 13.074554 8.229229 34.77423 22.367458 36.34384c22.103722 2.4539185 46.826767 -25.2854 46.826767 -47.524933c0 -19.397156 -35.107826 -30.966553 -53.11811 -23.763794c-12.980877 5.1913757 -28.404491 30.682617 -16.774277 38.44095" fill-rule="evenodd"/><path stroke="#000000" stroke-width="1.0" stroke-linejoin="round" stroke-linecap="butt" d="m56.451954 419.23697c5.6043816 13.074554 8.229229 34.77423 22.367458 36.34384c22.103722 2.4539185 46.826767 -25.2854 46.826767 -47.524933c0 -19.397156 -35.107826 -30.966553 -53.11811 -23.763794c-12.980877 5.1913757 -28.404491 30.682617 -16.774277 38.44095" fill-rule="evenodd"/><path fill="#000000" fill-opacity="0.0" d="m82.31233 428.32285c3.431633 1.1438599 6.8683167 2.7952576 10.485565 2.7952576" fill-rule="evenodd"/><path stroke="#000000" stroke-width="1.0" stroke-linejoin="round" stroke-linecap="butt" d="m82.31233 428.32285c3.431633 1.1438599 6.8683167 2.7952576 10.485565 2.7952576" fill-rule="evenodd"/><path fill="#000000" fill-opacity="0.0" d="m82.31233 408.0551c3.467598 -0.4967041 6.982582 -0.70077515 10.485565 -0.70077515" fill-rule="evenodd"/><path stroke="#000000" stroke-width="1.0" stroke-linejoin="round" stroke-linecap="butt" d="m82.31233 408.0551c3.467598 -0.4967041 6.982582 -0.70077515 10.485565 -0.70077515" fill-rule="evenodd"/><path fill="#000000" fill-opacity="0.0" d="m185.05602 403.16055c-4.282379 12.863251 -22.864716 28.857086 -13.2782135 38.443573c6.424591 6.424591 18.520355 -2.4935608 27.257217 0c13.316071 3.8005066 27.399246 13.45813 40.538055 9.083984c10.360947 -3.4493103 16.630539 -16.446716 18.173233 -27.257202c2.7990723 -19.614471 -19.450348 -42.53888 -39.141724 -44.7323c-15.236237 -1.6971436 -34.039795 12.226227 -37.042007 27.259857" fill-rule="evenodd"/><path stroke="#000000" stroke-width="1.0" stroke-linejoin="round" stroke-linecap="butt" d="m185.05602 403.16055c-4.282379 12.863251 -22.864716 28.857086 -13.2782135 38.443573c6.424591 6.424591 18.520355 -2.4935608 27.257217 0c13.316071 3.8005066 27.399246 13.45813 40.538055 9.083984c10.360947 -3.4493103 16.630539 -16.446716 18.173233 -27.257202c2.7990723 -19.614471 -19.450348 -42.53888 -39.141724 -44.7323c-15.236237 -1.6971436 -34.039795 12.226227 -37.042007 27.259857" fill-rule="evenodd"/><path fill="#000000" fill-opacity="0.0" d="m213.01312 412.9473c0.67832947 -2.037506 1.3989563 4.1412354 1.3989563 6.288727" fill-rule="evenodd"/><path stroke="#000000" stroke-width="1.0" stroke-linejoin="round" stroke-linecap="butt" d="m213.01312 412.9473c0.67832947 -2.037506 1.3989563 4.1412354 1.3989563 6.288727" fill-rule="evenodd"/><path fill="#000000" fill-opacity="0.0" d="m235.38058 412.9475c0.5042572 2.5231934 0.69815063 5.114563 0.69815063 7.6876526" fill-rule="evenodd"/><path stroke="#000000" stroke-width="1.0" stroke-linejoin="round" stroke-linecap="butt" d="m235.38058 412.9475c0.5042572 2.5231934 0.69815063 5.114563 0.69815063 7.6876526" fill-rule="evenodd"/><path fill="#000000" fill-opacity="0.0" d="m530.32806 520.5824c5.5757446 -22.240143 15.110596 -45.468994 32.15222 -60.80838c17.222168 -15.501862 44.476685 -23.193176 67.09717 -18.170593c27.978333 6.212219 17.506226 54.58188 26.559021 81.77426" fill-rule="evenodd"/><path stroke="#000000" stroke-width="1.0" stroke-linejoin="round" stroke-linecap="butt" d="m530.32806 520.5824c5.5757446 -22.240143 15.110596 -45.468994 32.15222 -60.80838c17.222168 -15.501862 44.476685 -23.193176 67.09717 -18.170593c27.978333 6.212219 17.506226 54.58188 26.559021 81.77426" fill-rule="evenodd"/><path fill="#000000" fill-opacity="0.0" d="m609.30707 470.25986c1.3372803 4.0016785 1.3989868 8.36084 1.3989868 12.580048" fill-rule="evenodd"/><path stroke="#000000" stroke-width="1.0" stroke-linejoin="round" stroke-linecap="butt" d="m609.30707 470.25986c1.3372803 4.0016785 1.3989868 8.36084 1.3989868 12.580048" fill-rule="evenodd"/><path fill="#000000" fill-opacity="0.0" d="m630.2756 471.65616c0 3.7351685 0.48168945 7.639801 -0.6981201 11.183746" fill-rule="evenodd"/><path stroke="#000000" stroke-width="1.0" stroke-linejoin="round" stroke-linecap="butt" d="m630.2756 471.65616c0 3.7351685 0.48168945 7.639801 -0.6981201 11.183746" fill-rule="evenodd"/><path fill="#000000" fill-opacity="0.0" d="m338.12335 525.4743c10.516327 -31.588531 31.319641 -88.11484 62.902893 -77.58267c10.730072 3.578186 21.712677 9.244293 28.656158 18.173218c12.21933 15.713348 6.893341 41.838226 20.968506 55.91336" fill-rule="evenodd"/><path stroke="#000000" stroke-width="1.0" stroke-linejoin="round" stroke-linecap="butt" d="m338.12335 525.4743c10.516327 -31.588531 31.319641 -88.11484 62.902893 -77.58267c10.730072 3.578186 21.712677 9.244293 28.656158 18.173218c12.21933 15.713348 6.893341 41.838226 20.968506 55.91336" fill-rule="evenodd"/><path fill="#000000" fill-opacity="0.0" d="m397.5328 455.58005c-0.26608276 0.79629517 -0.70010376 -1.6291809 -1.3989563 -2.0944824" fill-rule="evenodd"/><path stroke="#000000" stroke-width="1.0" stroke-linejoin="round" stroke-linecap="butt" d="m397.5328 455.58005c-0.26608276 0.79629517 -0.70010376 -1.6291809 -1.3989563 -2.0944824" fill-rule="evenodd"/><path fill="#000000" fill-opacity="0.0" d="m544.3061 407.35364c11.746521 1.6825867 17.470093 32.855377 25.8609 24.46457c5.8987427 -5.898712 7.0098267 -16.983734 14.677185 -20.270325c7.756592 -3.3248596 18.810669 2.7608948 25.16272 -2.795288c12.3125 -10.769836 17.32788 -34.095306 9.086609 -48.225708c-21.183105 -36.320343 -83.1875 -19.29721 -125.11023 -16.07611c-23.259369 1.7871094 -59.72232 -10.83551 -69.194214 10.482941c-8.049835 18.117767 2.1525269 47.86618 20.270325 55.915985c27.352295 12.152771 63.80011 -7.7171326 89.461914 7.687683" fill-rule="evenodd"/><path stroke="#000000" stroke-width="1.0" stroke-linejoin="round" stroke-linecap="butt" d="m544.3061 407.35364c11.746521 1.6825867 17.470093 32.855377 25.8609 24.46457c5.8987427 -5.898712 7.0098267 -16.983734 14.677185 -20.270325c7.756592 -3.3248596 18.810669 2.7608948 25.16272 -2.795288c12.3125 -10.769836 17.32788 -34.095306 9.086609 -48.225708c-21.183105 -36.320343 -83.1875 -19.29721 -125.11023 -16.07611c-23.259369 1.7871094 -59.72232 -10.83551 -69.194214 10.482941c-8.049835 18.117767 2.1525269 47.86618 20.270325 55.915985c27.352295 12.152771 63.80011 -7.7171326 89.461914 7.687683" fill-rule="evenodd"/><path fill="#000000" fill-opacity="0.0" d="m404.5223 557.6247c3.0369873 0 6.1063232 0.10345459 9.083984 0.7007446" fill-rule="evenodd"/><path stroke="#000000" stroke-width="1.0" stroke-linejoin="round" stroke-linecap="butt" d="m404.5223 557.6247c3.0369873 0 6.1063232 0.10345459 9.083984 0.7007446" fill-rule="evenodd"/><path fill="#000000" fill-opacity="0.0" d="m419.89688 573.7008c-0.85375977 -5.545532 -1.3989563 -11.163452 -1.3989563 -16.774292c0 -2.562561 -1.1494446 -9.977966 0 -7.687683c2.9109192 5.800049 3.0950317 23.361633 6.989502 18.170593c4.6325684 -6.1748047 2.0971375 -15.343567 2.0971375 -23.062988" fill-rule="evenodd"/><path stroke="#000000" stroke-width="1.0" stroke-linejoin="round" stroke-linecap="butt" d="m419.89688 573.7008c-0.85375977 -5.545532 -1.3989563 -11.163452 -1.3989563 -16.774292c0 -2.562561 -1.1494446 -9.977966 0 -7.687683c2.9109192 5.800049 3.0950317 23.361633 6.989502 18.170593c4.6325684 -6.1748047 2.0971375 -15.343567 2.0971375 -23.062988" fill-rule="evenodd"/><path fill="#000000" fill-opacity="0.0" d="m433.87766 568.1103c-3.2946167 -1.3183594 -7.032776 11.914368 -4.194214 9.784729c2.7705078 -2.0784912 1.417511 -7.014221 3.4960632 -9.784729c1.63031 -2.1730957 2.6859741 4.7282104 4.1915894 6.989502" fill-rule="evenodd"/><path stroke="#000000" stroke-width="1.0" stroke-linejoin="round" stroke-linecap="butt" d="m433.87766 568.1103c-3.2946167 -1.3183594 -7.032776 11.914368 -4.194214 9.784729c2.7705078 -2.0784912 1.417511 -7.014221 3.4960632 -9.784729c1.63031 -2.1730957 2.6859741 4.7282104 4.1915894 6.989502" fill-rule="evenodd"/><path fill="#000000" fill-opacity="0.0" d="m445.75824 556.2277c-6.4620667 -4.845825 -19.589386 15.223694 -13.280823 20.2677c4.125702 3.298706 7.5554504 -7.4866943 10.485565 -11.881897" fill-rule="evenodd"/><path stroke="#000000" stroke-width="1.0" stroke-linejoin="round" stroke-linecap="butt" d="m445.75824 556.2277c-6.4620667 -4.845825 -19.589386 15.223694 -13.280823 20.2677c4.125702 3.298706 7.5554504 -7.4866943 10.485565 -11.881897" fill-rule="evenodd"/><path fill="#000000" fill-opacity="0.0" d="m448.5538 542.2499c4.4261475 -6.635071 -2.7952576 15.787903 -2.7952576 23.763794c0 1.774292 0.3470459 -4.5999756 2.097107 -4.892395c5.7579956 -0.96209717 2.6273193 16.334473 8.385803 15.375305c5.019104 -0.83599854 4.1942444 -9.588928 4.1942444 -14.677124c0 -2.446228 1.9907532 -3.4708862 0 -4.892395c-5.3424683 -3.8148193 -9.086609 10.907776 -9.086609 17.472412" fill-rule="evenodd"/><path stroke="#000000" stroke-width="1.0" stroke-linejoin="round" stroke-linecap="butt" d="m448.5538 542.2499c4.4261475 -6.635071 -2.7952576 15.787903 -2.7952576 23.763794c0 1.774292 0.3470459 -4.5999756 2.097107 -4.892395c5.7579956 -0.96209717 2.6273193 16.334473 8.385803 15.375305c5.019104 -0.83599854 4.1942444 -9.588928 4.1942444 -14.677124c0 -2.446228 1.9907532 -3.4708862 0 -4.892395c-5.3424683 -3.8148193 -9.086609 10.907776 -9.086609 17.472412" fill-rule="evenodd"/><path fill="#000000" fill-opacity="0.0" d="m460.69553 354.8386l402.58267 0l0 46.960632l-402.58267 0z" fill-rule="evenodd"/><path fill="#000000" d="m475.69553 377.91858l-3.75 -8.171875l0 6.484375q0 0.90625 0.1875 1.125q0.265625 0.296875 0.84375 0.296875l0.34375 0l0 0.265625l-3.375 0l0 -0.265625l0.34375 0q0.609375 0 0.859375 -0.375q0.171875 -0.21875 0.171875 -1.046875l0 -6.328125q0 -0.65625 -0.15625 -0.9375q-0.09375 -0.203125 -0.359375 -0.34375q-0.265625 -0.140625 -0.859375 -0.140625l0 -0.265625l2.734375 0l3.53125 7.59375l3.453125 -7.59375l2.75 0l0 0.265625l-0.328125 0q-0.625 0 -0.890625 0.375q-0.15625 0.21875 -0.15625 1.046875l0 6.328125q0 0.90625 0.203125 1.125q0.265625 0.296875 0.84375 0.296875l0.328125 0l0 0.265625l-4.109375 0l0 -0.265625l0.34375 0q0.609375 0 0.859375 -0.375q0.15625 -0.21875 0.15625 -1.046875l0 -6.484375l-3.734375 8.171875l-0.234375 0zm11.203644 -0.9375q-1.015625 0.765625 -1.265625 0.890625q-0.390625 0.1875 -0.828125 0.1875q-0.671875 0 -1.125 -0.46875q-0.4375 -0.46875 -0.4375 -1.21875q0 -0.484375 0.21875 -0.84375q0.296875 -0.484375 1.015625 -0.90625q0.734375 -0.4375 2.421875 -1.046875l0 -0.25q0 -0.984375 -0.3125 -1.34375q-0.3125 -0.375 -0.90625 -0.375q-0.453125 0 -0.71875 0.25q-0.265625 0.234375 -0.265625 0.546875l0.015625 0.421875q0 0.328125 -0.171875 0.515625q-0.171875 0.171875 -0.4375 0.171875q-0.265625 0 -0.4375 -0.1875q-0.171875 -0.1875 -0.171875 -0.515625q0 -0.609375 0.625 -1.125q0.640625 -0.515625 1.78125 -0.515625q0.875 0 1.421875 0.296875q0.4375 0.21875 0.625 0.6875q0.140625 0.3125 0.140625 1.265625l0 2.21875q0 0.9375 0.03125 1.15625q0.03125 0.203125 0.109375 0.28125q0.09375 0.078125 0.203125 0.078125q0.109375 0 0.1875 -0.0625q0.15625 -0.09375 0.578125 -0.515625l0 0.40625q-0.796875 1.0625 -1.53125 1.0625q-0.34375 0 -0.5625 -0.234375q-0.203125 -0.25 -0.203125 -0.828125zm0 -0.46875l0 -2.5q-1.078125 0.421875 -1.390625 0.609375q-0.5625 0.3125 -0.8125 0.65625q-0.25 0.34375 -0.25 0.75q0 0.515625 0.3125 0.859375q0.3125 0.34375 0.703125 0.34375q0.546875 0 1.4375 -0.71875zm7.427002 0.671875q-0.484375 0.5 -0.953125 0.71875q-0.453125 0.21875 -0.984375 0.21875q-1.0625 0 -1.875 -0.890625q-0.796875 -0.90625 -0.796875 -2.3125q0 -1.421875 0.890625 -2.578125q0.890625 -1.171875 2.28125 -1.171875q0.859375 0 1.4375 0.546875l0 -1.203125q0 -1.125 -0.0625 -1.375q-0.046875 -0.265625 -0.171875 -0.359375q-0.109375 -0.09375 -0.28125 -0.09375q-0.1875 0 -0.484375 0.109375l-0.09375 -0.25l1.953125 -0.796875l0.3125 0l0 7.578125q0 1.140625 0.046875 1.40625q0.0625 0.25 0.171875 0.359375q0.125 0.09375 0.28125 0.09375q0.203125 0 0.515625 -0.125l0.078125 0.25l-1.9375 0.8125l-0.328125 0l0 -0.9375zm0 -0.5l0 -3.375q-0.046875 -0.5 -0.265625 -0.890625q-0.21875 -0.40625 -0.578125 -0.609375q-0.34375 -0.203125 -0.671875 -0.203125q-0.640625 0 -1.125 0.5625q-0.65625 0.75 -0.65625 2.171875q0 1.453125 0.625 2.21875q0.640625 0.765625 1.40625 0.765625q0.65625 0 1.265625 -0.640625zm3.796875 -2.859375q-0.015625 1.46875 0.703125 2.296875q0.71875 0.828125 1.6875 0.828125q0.640625 0 1.109375 -0.34375q0.484375 -0.359375 0.8125 -1.21875l0.21875 0.140625q-0.15625 0.984375 -0.875 1.796875q-0.71875 0.796875 -1.8125 0.796875q-1.1875 0 -2.03125 -0.921875q-0.828125 -0.921875 -0.828125 -2.46875q0 -1.6875 0.859375 -2.625q0.859375 -0.9375 2.171875 -0.9375q1.09375 0 1.796875 0.734375q0.71875 0.71875 0.71875 1.921875l-4.53125 0zm0 -0.40625l3.03125 0q-0.03125 -0.625 -0.15625 -0.890625q-0.171875 -0.40625 -0.53125 -0.625q-0.34375 -0.234375 -0.734375 -0.234375q-0.59375 0 -1.0625 0.46875q-0.46875 0.453125 -0.546875 1.28125zm8.684845 -2.0625l3.0625 0l0 0.265625l-0.15625 0q-0.3125 0 -0.484375 0.140625q-0.15625 0.140625 -0.15625 0.359375q0 0.265625 0.234375 0.765625l1.59375 3.3125l1.4687195 -3.625q0.125 -0.296875 0.125 -0.578125q0 -0.125 -0.046875 -0.203125q-0.0625 -0.078125 -0.1875 -0.125q-0.109375 -0.046875 -0.42184448 -0.046875l0 -0.265625l2.1405945 0l0 0.265625q-0.265625 0.03125 -0.421875 0.125q-0.140625 0.078125 -0.3125 0.3125q-0.0625 0.109375 -0.234375 0.5625l-2.6718445 6.53125q-0.390625 0.953125 -1.015625 1.4375q-0.625 0.484375 -1.203125 0.484375q-0.421875 0 -0.703125 -0.25q-0.265625 -0.234375 -0.265625 -0.546875q0 -0.296875 0.1875 -0.484375q0.203125 -0.171875 0.546875 -0.171875q0.234375 0 0.640625 0.15625q0.296875 0.09375 0.359375 0.09375q0.21875 0 0.46875 -0.21875q0.265625 -0.21875 0.515625 -0.859375l0.46875 -1.125l-2.359375 -4.953125q-0.109375 -0.21875 -0.34375 -0.546875q-0.171875 -0.25 -0.296875 -0.34375q-0.15625 -0.109375 -0.53125 -0.203125l0 -0.265625zm10.9218445 -0.1875q1.484375 0 2.375 1.125q0.765625 0.96875 0.765625 2.21875q0 0.890625 -0.421875 1.796875q-0.421875 0.890625 -1.15625 1.359375q-0.734375 0.453125 -1.65625 0.453125q-1.46875 0 -2.34375 -1.1875q-0.734375 -0.984375 -0.734375 -2.234375q0 -0.890625 0.4375 -1.78125q0.453125 -0.890625 1.171875 -1.3125q0.734375 -0.4375 1.5625 -0.4375zm-0.234375 0.46875q-0.375 0 -0.765625 0.234375q-0.375 0.21875 -0.609375 0.78125q-0.234375 0.5625 -0.234375 1.453125q0 1.421875 0.5625 2.46875q0.578125 1.03125 1.5 1.03125q0.703125 0 1.140625 -0.5625q0.453125 -0.578125 0.453125 -1.96875q0 -1.75 -0.75 -2.75q-0.5 -0.6875 -1.296875 -0.6875zm10.09375 -0.28125l0 3.984375q0 1.125 0.046875 1.390625q0.0625 0.25 0.171875 0.359375q0.125 0.09375 0.28125 0.09375q0.21875 0 0.5 -0.125l0.109375 0.25l-1.96875 0.8125l-0.3125 0l0 -1.390625q-0.859375 0.921875 -1.296875 1.15625q-0.4375 0.234375 -0.9375 0.234375q-0.546875 0 -0.953125 -0.3125q-0.40625 -0.328125 -0.5625 -0.828125q-0.15625 -0.5 -0.15625 -1.421875l0 -2.921875q0 -0.46875 -0.109375 -0.640625q-0.09375 -0.1875 -0.296875 -0.28125q-0.1875 -0.09375 -0.703125 -0.09375l0 -0.265625l2.296875 0l0 4.390625q0 0.921875 0.3125 1.203125q0.328125 0.28125 0.78125 0.28125q0.296875 0 0.6875 -0.1875q0.390625 -0.1875 0.9375 -0.734375l0 -3.71875q0 -0.546875 -0.21875 -0.75q-0.203125 -0.203125 -0.84375 -0.21875l0 -0.265625l2.234375 0zm7.5078125 -3.609375l0 8.6875q0 0.625 0.078125 0.828125q0.09375 0.1875 0.28125 0.296875q0.1875 0.109375 0.6875 0.109375l0 0.25l-3.203125 0l0 -0.25q0.453125 0 0.609375 -0.09375q0.171875 -0.09375 0.265625 -0.3125q0.09375 -0.21875 0.09375 -0.828125l0 -5.953125q0 -1.109375 -0.0625 -1.359375q-0.046875 -0.25 -0.15625 -0.34375q-0.109375 -0.09375 -0.28125 -0.09375q-0.1875 0 -0.46875 0.109375l-0.125 -0.25l1.953125 -0.796875l0.328125 0zm5.0251465 3.421875q1.484375 0 2.375 1.125q0.765625 0.96875 0.765625 2.21875q0 0.890625 -0.421875 1.796875q-0.421875 0.890625 -1.15625 1.359375q-0.734375 0.453125 -1.65625 0.453125q-1.46875 0 -2.34375 -1.1875q-0.734375 -0.984375 -0.734375 -2.234375q0 -0.890625 0.4375 -1.78125q0.453125 -0.890625 1.171875 -1.3125q0.734375 -0.4375 1.5625 -0.4375zm-0.234375 0.46875q-0.375 0 -0.765625 0.234375q-0.375 0.21875 -0.609375 0.78125q-0.234375 0.5625 -0.234375 1.453125q0 1.421875 0.5625 2.46875q0.578125 1.03125 1.5 1.03125q0.703125 0 1.140625 -0.5625q0.453125 -0.578125 0.453125 -1.96875q0 -1.75 -0.75 -2.75q-0.5 -0.6875 -1.296875 -0.6875zm7.5625 -0.46875q1.484375 0 2.375 1.125q0.765625 0.96875 0.765625 2.21875q0 0.890625 -0.421875 1.796875q-0.421875 0.890625 -1.15625 1.359375q-0.734375 0.453125 -1.65625 0.453125q-1.46875 0 -2.34375 -1.1875q-0.734375 -0.984375 -0.734375 -2.234375q0 -0.890625 0.4375 -1.78125q0.453125 -0.890625 1.171875 -1.3125q0.734375 -0.4375 1.5625 -0.4375zm-0.234375 0.46875q-0.375 0 -0.765625 0.234375q-0.375 0.21875 -0.609375 0.78125q-0.234375 0.5625 -0.234375 1.453125q0 1.421875 0.5625 2.46875q0.578125 1.03125 1.5 1.03125q0.703125 0 1.140625 -0.5625q0.453125 -0.578125 0.453125 -1.96875q0 -1.75 -0.75 -2.75q-0.5 -0.6875 -1.296875 -0.6875zm6.28125 -3.890625l0 6.515625l1.671875 -1.515625q0.53125 -0.484375 0.625 -0.625q0.046875 -0.078125 0.046875 -0.171875q0 -0.140625 -0.125 -0.234375q-0.109375 -0.109375 -0.375 -0.125l0 -0.234375l2.84375 0l0 0.234375q-0.59375 0.015625 -0.984375 0.1875q-0.390625 0.15625 -0.84375 0.578125l-1.6875 1.5625l1.6875 2.125q0.703125 0.875 0.9375 1.109375q0.34375 0.34375 0.609375 0.4375q0.171875 0.078125 0.609375 0.078125l0 0.25l-3.171875 0l0 -0.25q0.265625 -0.015625 0.359375 -0.09375q0.09375 -0.078125 0.09375 -0.203125q0 -0.171875 -0.28125 -0.53125l-2.015625 -2.578125l0 2.1875q0 0.625 0.09375 0.828125q0.09375 0.203125 0.25 0.296875q0.171875 0.078125 0.71875 0.09375l0 0.25l-3.328125 0l0 -0.25q0.5 0 0.75 -0.125q0.140625 -0.078125 0.234375 -0.25q0.09375 -0.234375 0.09375 -0.8125l0 -5.96875q0 -1.140625 -0.046875 -1.390625q-0.046875 -0.25 -0.171875 -0.34375q-0.109375 -0.109375 -0.296875 -0.109375q-0.140625 0 -0.4375 0.125l-0.125 -0.25l1.9375 -0.796875l0.328125 0zm6.765625 8.78125q0.34375 0 0.5625 0.234375q0.234375 0.234375 0.234375 0.5625q0 0.328125 -0.234375 0.5625q-0.234375 0.234375 -0.5625 0.234375q-0.328125 0 -0.5625 -0.234375q-0.234375 -0.234375 -0.234375 -0.5625q0 -0.34375 0.234375 -0.5625q0.234375 -0.234375 0.5625 -0.234375z" fill-rule="nonzero"/><path fill="#000000" fill-opacity="0.0" d="m615.59845 501.41068c0 2.983429 2.9224243 8.324402 5.590515 6.989502c3.6386108 -1.8204346 8.071594 -8.638916 4.8950195 -11.181122c-2.7349243 -2.1887512 -7.571533 -1.245758 -10.485535 0.69818115" fill-rule="evenodd"/><path stroke="#000000" stroke-width="1.0" stroke-linejoin="round" stroke-linecap="butt" d="m615.59845 501.41068c0 2.983429 2.9224243 8.324402 5.590515 6.989502c3.6386108 -1.8204346 8.071594 -8.638916 4.8950195 -11.181122c-2.7349243 -2.1887512 -7.571533 -1.245758 -10.485535 0.69818115" fill-rule="evenodd"/><path fill="#000000" fill-opacity="0.0" d="m390.5433 458.0761c2.2883606 -2.28833 3.8666992 -5.316437 4.892395 -8.385834" fill-rule="evenodd"/><path stroke="#000000" stroke-width="1.0" stroke-linejoin="round" stroke-linecap="butt" d="m390.5433 458.0761c2.2883606 -2.28833 3.8666992 -5.316437 4.892395 -8.385834" fill-rule="evenodd"/><path fill="#000000" fill-opacity="0.0" d="m412.90814 476.25034c1.9089966 -1.2734985 4.7053833 -5.0195312 2.7952576 -6.2913513c-1.9966125 -1.3294373 -3.4934387 3.8926086 -3.4934387 6.2913513" fill-rule="evenodd"/><path stroke="#000000" stroke-width="1.0" stroke-linejoin="round" stroke-linecap="butt" d="m412.90814 476.25034c1.9089966 -1.2734985 4.7053833 -5.0195312 2.7952576 -6.2913513c-1.9966125 -1.3294373 -3.4934387 3.8926086 -3.4934387 6.2913513" fill-rule="evenodd"/><path fill="#000000" fill-opacity="0.0" d="m408.0156 442.00018c16.192291 10.801605 37.997925 8.771698 57.312347 11.183746c9.4305725 1.1777039 26.610443 3.8172302 27.958008 -5.5905457c1.0785217 -7.52948 -8.832611 -12.604431 -14.677155 -17.472443c-16.873596 -14.054291 -41.791748 -25.609558 -62.905518 -19.572205c-9.0963745 2.6010742 -10.135834 20.083008 -4.892395 27.958008" fill-rule="evenodd"/><path stroke="#000000" stroke-width="1.0" stroke-linejoin="round" stroke-linecap="butt" d="m408.0156 442.00018c16.192291 10.801605 37.997925 8.771698 57.312347 11.183746c9.4305725 1.1777039 26.610443 3.8172302 27.958008 -5.5905457c1.0785217 -7.52948 -8.832611 -12.604431 -14.677155 -17.472443c-16.873596 -14.054291 -41.791748 -25.609558 -62.905518 -19.572205c-9.0963745 2.6010742 -10.135834 20.083008 -4.892395 27.958008" fill-rule="evenodd"/><path fill="#000000" fill-opacity="0.0" d="m419.19946 410.62466l402.5827 0l0 46.960632l-402.5827 0z" fill-rule="evenodd"/><path fill="#000000" d="m428.44946 433.70468l0 -0.265625l0.359375 0q0.625 0 0.875 -0.390625q0.15625 -0.234375 0.15625 -1.0625l0 -6.265625q0 -0.90625 -0.1875 -1.140625q-0.28125 -0.3125 -0.84375 -0.3125l-0.359375 0l0 -0.265625l3.953125 0q2.171875 0 3.296875 0.5q1.140625 0.484375 1.828125 1.640625q0.703125 1.15625 0.703125 2.65625q0 2.03125 -1.234375 3.390625q-1.390625 1.515625 -4.203125 1.515625l-4.34375 0zm2.765625 -0.703125q0.90625 0.203125 1.53125 0.203125q1.65625 0 2.75 -1.15625q1.09375 -1.171875 1.09375 -3.171875q0 -2.015625 -1.09375 -3.171875q-1.09375 -1.15625 -2.8125 -1.15625q-0.640625 0 -1.46875 0.203125l0 8.25zm11.74054 -0.234375q-1.015625 0.765625 -1.265625 0.890625q-0.390625 0.1875 -0.828125 0.1875q-0.671875 0 -1.125 -0.46875q-0.4375 -0.46875 -0.4375 -1.21875q0 -0.484375 0.21875 -0.84375q0.296875 -0.484375 1.015625 -0.90625q0.734375 -0.4375 2.421875 -1.046875l0 -0.25q0 -0.984375 -0.3125 -1.34375q-0.3125 -0.375 -0.90625 -0.375q-0.453125 0 -0.71875 0.25q-0.265625 0.234375 -0.265625 0.546875l0.015625 0.421875q0 0.328125 -0.171875 0.515625q-0.171875 0.171875 -0.4375 0.171875q-0.265625 0 -0.4375 -0.1875q-0.171875 -0.1875 -0.171875 -0.515625q0 -0.609375 0.625 -1.125q0.640625 -0.515625 1.78125 -0.515625q0.875 0 1.421875 0.296875q0.4375 0.21875 0.625 0.6875q0.140625 0.3125 0.140625 1.265625l0 2.21875q0 0.9375 0.03125 1.15625q0.03125 0.203125 0.109375 0.28125q0.09375 0.078125 0.203125 0.078125q0.109375 0 0.1875 -0.0625q0.15625 -0.09375 0.578125 -0.515625l0 0.40625q-0.796875 1.0625 -1.53125 1.0625q-0.34375 0 -0.5625 -0.234375q-0.203125 -0.25 -0.203125 -0.828125zm0 -0.46875l0 -2.5q-1.078125 0.421875 -1.390625 0.609375q-0.5625 0.3125 -0.8125 0.65625q-0.25 0.34375 -0.25 0.75q0 0.515625 0.3125 0.859375q0.3125 0.34375 0.703125 0.34375q0.546875 0 1.4375 -0.71875zm4.708252 -5.34375l0 1.46875q0.828125 -1.46875 1.6875 -1.46875q0.390625 0 0.640625 0.25q0.265625 0.234375 0.265625 0.546875q0 0.28125 -0.1875 0.484375q-0.1875 0.1875 -0.4375 0.1875q-0.25 0 -0.5625 -0.25q-0.3125 -0.25 -0.453125 -0.25q-0.140625 0 -0.28125 0.140625q-0.328125 0.296875 -0.671875 0.96875l0 3.140625q0 0.546875 0.140625 0.828125q0.09375 0.1875 0.328125 0.328125q0.234375 0.125 0.671875 0.125l0 0.25l-3.34375 0l0 -0.25q0.5 0 0.734375 -0.171875q0.1875 -0.109375 0.25 -0.359375q0.03125 -0.125 0.03125 -0.6875l0 -2.546875q0 -1.140625 -0.046875 -1.359375q-0.03125 -0.21875 -0.15625 -0.3125q-0.125 -0.109375 -0.3125 -0.109375q-0.234375 0 -0.5 0.109375l-0.078125 -0.265625l1.984375 -0.796875l0.296875 0zm4.8806458 1.390625q1.140625 -1.390625 2.1875 -1.390625q0.546875 0 0.921875 0.265625q0.390625 0.265625 0.625 0.890625q0.15625 0.421875 0.15625 1.3125l0 2.796875q0 0.625 0.09375 0.84375q0.078125 0.1875 0.25 0.296875q0.1875 0.09375 0.65625 0.09375l0 0.25l-3.25 0l0 -0.25l0.140625 0q0.453125 0 0.640625 -0.140625q0.1875 -0.140625 0.25 -0.421875q0.03125 -0.109375 0.03125 -0.671875l0 -2.6875q0 -0.890625 -0.234375 -1.296875q-0.234375 -0.40625 -0.78125 -0.40625q-0.84375 0 -1.6875 0.9375l0 3.453125q0 0.671875 0.078125 0.828125q0.09375 0.203125 0.265625 0.3125q0.171875 0.09375 0.71875 0.09375l0 0.25l-3.25 0l0 -0.25l0.15625 0q0.5 0 0.671875 -0.25q0.171875 -0.265625 0.171875 -0.984375l0 -2.4375q0 -1.171875 -0.0625 -1.421875q-0.046875 -0.265625 -0.15625 -0.359375q-0.109375 -0.09375 -0.296875 -0.09375q-0.203125 0 -0.484375 0.109375l-0.109375 -0.265625l1.984375 -0.796875l0.3125 0l0 1.390625zm6.78125 3.96875q0.34375 0 0.5625 0.234375q0.234375 0.234375 0.234375 0.5625q0 0.328125 -0.234375 0.5625q-0.234375 0.234375 -0.5625 0.234375q-0.328125 0 -0.5625 -0.234375q-0.234375 -0.234375 -0.234375 -0.5625q0 -0.34375 0.234375 -0.5625q0.234375 -0.234375 0.5625 -0.234375z" fill-rule="nonzero"/></g></svg>