<svg version="1.1" viewBox="0.0 0.0 962.4278215223097 397.45669291338584" fill="none" stroke="none" stroke-linecap="square" stroke-miterlimit="10" xmlns:xlink="http://www.w3.org/1999/xlink" xmlns="http://www.w3.org/2000/svg"><clipPath id="p.0"><path d="m0 0l962.4278 0l0 397.4567l-962.4278 0l0 -397.4567z" clip-rule="nonzero"/></clipPath><g clip-path="url(#p.0)"><path fill="#ffffff" d="m0 0l962.4278 0l0 397.4567l-962.4278 0z" fill-rule="evenodd"/><path fill="#ffffff" d="m57.225723 89.480316l329.82678 0l0 233.07086l-329.82678 0z" fill-rule="evenodd"/><path stroke="#000000" stroke-width="1.0" stroke-linejoin="round" stroke-linecap="butt" d="m57.225723 89.480316l329.82678 0l0 233.07086l-329.82678 0z" fill-rule="evenodd"/><path fill="#ffffff" d="m455.72177 111.33071l255.96854 0l0 213.29132l-255.96854 0z" fill-rule="evenodd"/><path stroke="#000000" stroke-width="1.0" stroke-linejoin="round" stroke-linecap="butt" d="m455.72177 111.33071l255.96854 0l0 213.29132l-255.96854 0z" fill-rule="evenodd"/><path fill="#ffffff" d="m756.4173 207.05249l107.14966 0l0 102.99213l-107.14966 0z" fill-rule="evenodd"/><path stroke="#000000" stroke-width="1.0" stroke-linejoin="round" stroke-linecap="butt" d="m756.4173 207.05249l107.14966 0l0 102.99213l-107.14966 0z" fill-rule="evenodd"/><path fill="#ffffff" d="m897.91864 243.4672l10.393677 0l0 11.433075l-10.393677 0z" fill-rule="evenodd"/><path stroke="#000000" stroke-width="1.0" stroke-linejoin="round" stroke-linecap="butt" d="m897.91864 243.4672l10.393677 0l0 11.433075l-10.393677 0z" fill-rule="evenodd"/><path fill="#000000" fill-opacity="0.0" d="m88.870636 307.25937c-0.815155 1.2235107 2.785881 4.0707703 3.443573 2.75589c6.4516754 -12.8984375 4.8501816 -28.43686 6.889763 -42.713898c4.965439 -34.758087 31.086311 -84.047104 66.13648 -81.98163c31.493347 1.8558655 41.94922 49.998367 49.60367 80.60367c2.878662 11.509888 18.00412 36.35202 24.11287 26.181091" fill-rule="evenodd"/><path stroke="#000000" stroke-width="1.0" stroke-linejoin="round" stroke-linecap="butt" d="m88.870636 307.25937c-0.815155 1.2235107 2.785881 4.0707703 3.443573 2.75589c6.4516754 -12.8984375 4.8501816 -28.43686 6.889763 -42.713898c4.965439 -34.758087 31.086311 -84.047104 66.13648 -81.98163c31.493347 1.8558655 41.94922 49.998367 49.60367 80.60367c2.878662 11.509888 18.00412 36.35202 24.11287 26.181091" fill-rule="evenodd"/><path fill="#000000" fill-opacity="0.0" d="m160.51968 223.90027c1.6994476 5.1004944 1.7102814 11.355942 5.5118103 15.157471" fill-rule="evenodd"/><path stroke="#000000" stroke-width="1.0" stroke-linejoin="round" stroke-linecap="butt" d="m160.51968 223.90027c1.6994476 5.1004944 1.7102814 11.355942 5.5118103 15.157471" fill-rule="evenodd"/><path fill="#000000" fill-opacity="0.0" d="m172.92126 219.7664c2.482895 8.444138 6.8871307 34.29242 6.8871307 25.490814" fill-rule="evenodd"/><path stroke="#000000" stroke-width="1.0" stroke-linejoin="round" stroke-linecap="butt" d="m172.92126 219.7664c2.482895 8.444138 6.8871307 34.29242 6.8871307 25.490814" fill-rule="evenodd"/><path fill="#000000" fill-opacity="0.0" d="m165.3412 265.2362c2.2777405 -6.0700684 12.114487 -4.677948 17.913391 -7.577423" fill-rule="evenodd"/><path stroke="#000000" stroke-width="1.0" stroke-linejoin="round" stroke-linecap="butt" d="m165.3412 265.2362c2.2777405 -6.0700684 12.114487 -4.677948 17.913391 -7.577423" fill-rule="evenodd"/><path fill="#000000" fill-opacity="0.0" d="m143.29703 152.94319c-6.986496 2.3229218 -0.21920776 14.857391 1.377945 22.044617c1.5887299 7.149231 7.243271 -15.331055 14.467194 -16.53543c7.378418 -1.230133 14.068436 5.2069855 21.356964 6.8897705c11.268021 2.6015778 23.554993 -0.24563599 34.446182 -4.1338654c11.331039 -4.0452576 17.63153 -21.460327 14.467194 -33.068237c-6.8118896 -24.988487 -50.646103 -15.767418 -76.46982 -13.776909c-18.140167 1.398262 -46.799934 -12.385117 -54.425194 4.1338654c-3.1888504 6.9081573 -3.5903778 17.642952 2.0656204 22.732277c9.879349 8.889542 26.378548 10.118851 39.27034 6.8897705" fill-rule="evenodd"/><path stroke="#000000" stroke-width="1.0" stroke-linejoin="round" stroke-linecap="butt" d="m143.29703 152.94319c-6.986496 2.3229218 -0.21920776 14.857391 1.377945 22.044617c1.5887299 7.149231 7.243271 -15.331055 14.467194 -16.53543c7.378418 -1.230133 14.068436 5.2069855 21.356964 6.8897705c11.268021 2.6015778 23.554993 -0.24563599 34.446182 -4.1338654c11.331039 -4.0452576 17.63153 -21.460327 14.467194 -33.068237c-6.8118896 -24.988487 -50.646103 -15.767418 -76.46982 -13.776909c-18.140167 1.398262 -46.799934 -12.385117 -54.425194 4.1338654c-3.1888504 6.9081573 -3.5903778 17.642952 2.0656204 22.732277c9.879349 8.889542 26.378548 10.118851 39.27034 6.8897705" fill-rule="evenodd"/><path fill="#000000" fill-opacity="0.0" d="m514.626 318.28296c-3.1433716 9.4062195 5.89209 -20.216064 2.7559204 -29.624664c-4.0925903 -12.2777405 -15.5979 -21.713135 -17.913391 -34.446198c-2.1868591 -12.025604 3.9872742 -30.103775 15.845154 -33.068237c10.269775 -2.5674438 21.248352 -3.8052063 31.690308 -2.0656128c22.630554 3.7701569 34.32794 31.613937 45.469788 51.66928c8.493103 15.287567 4.0736694 42.699127 20.666687 48.223114" fill-rule="evenodd"/><path stroke="#000000" stroke-width="1.0" stroke-linejoin="round" stroke-linecap="butt" d="m514.626 318.28296c-3.1433716 9.4062195 5.89209 -20.216064 2.7559204 -29.624664c-4.0925903 -12.2777405 -15.5979 -21.713135 -17.913391 -34.446198c-2.1868591 -12.025604 3.9872742 -30.103775 15.845154 -33.068237c10.269775 -2.5674438 21.248352 -3.8052063 31.690308 -2.0656128c22.630554 3.7701569 34.32794 31.613937 45.469788 51.66928c8.493103 15.287567 4.0736694 42.699127 20.666687 48.223114" fill-rule="evenodd"/><path fill="#000000" fill-opacity="0.0" d="m540.8058 255.59055c0.28881836 4.6125793 4.1326294 16.535278 6.199463 12.401581" fill-rule="evenodd"/><path stroke="#000000" stroke-width="1.0" stroke-linejoin="round" stroke-linecap="butt" d="m540.8058 255.59055c0.28881836 4.6125793 4.1326294 16.535278 6.199463 12.401581" fill-rule="evenodd"/><path fill="#000000" fill-opacity="0.0" d="m551.8294 251.4567c1.3186646 4.8389587 2.9152832 9.602081 4.13385 14.467194" fill-rule="evenodd"/><path stroke="#000000" stroke-width="1.0" stroke-linejoin="round" stroke-linecap="butt" d="m551.8294 251.4567c1.3186646 4.8389587 2.9152832 9.602081 4.13385 14.467194" fill-rule="evenodd"/><path fill="#000000" fill-opacity="0.0" d="m567.67566 274.1916c-10.845703 2.1724548 -29.872375 16.982819 -22.047241 24.800537c5.0596924 5.0548706 7.683899 -13.578278 14.467224 -15.845154" fill-rule="evenodd"/><path stroke="#000000" stroke-width="1.0" stroke-linejoin="round" stroke-linecap="butt" d="m567.67566 274.1916c-10.845703 2.1724548 -29.872375 16.982819 -22.047241 24.800537c5.0596924 5.0548706 7.683899 -13.578278 14.467224 -15.845154" fill-rule="evenodd"/><path fill="#000000" fill-opacity="0.0" d="m520.8267 190.14462c-5.0689087 -7.6082764 4.272278 30.1147 11.711304 24.800522c6.475952 -4.62619 9.3133545 -15.65509 17.223083 -16.53543c23.92102 -2.6623993 49.301086 17.896896 71.648315 8.957993c14.7677 -5.907074 17.396545 -29.836609 14.467163 -45.469803c-8.404114 -44.850624 -96.58807 -41.390457 -135.71652 -17.913391c-7.60672 4.564041 -11.385376 16.104523 -9.64566 24.803146c1.3130188 6.565033 11.234863 7.339218 17.223114 10.3333435" fill-rule="evenodd"/><path stroke="#000000" stroke-width="1.0" stroke-linejoin="round" stroke-linecap="butt" d="m520.8267 190.14462c-5.0689087 -7.6082764 4.272278 30.1147 11.711304 24.800522c6.475952 -4.62619 9.3133545 -15.65509 17.223083 -16.53543c23.92102 -2.6623993 49.301086 17.896896 71.648315 8.957993c14.7677 -5.907074 17.396545 -29.836609 14.467163 -45.469803c-8.404114 -44.850624 -96.58807 -41.390457 -135.71652 -17.913391c-7.60672 4.564041 -11.385376 16.104523 -9.64566 24.803146c1.3130188 6.565033 11.234863 7.339218 17.223114 10.3333435" fill-rule="evenodd"/><path fill="#000000" fill-opacity="0.0" d="m767.4619 307.26004c19.880432 -23.1875 -12.751099 -79.51892 15.845154 -90.249344c37.115784 -13.927261 68.74353 49.202103 81.29401 86.80577" fill-rule="evenodd"/><path stroke="#000000" stroke-width="1.0" stroke-linejoin="round" stroke-linecap="butt" d="m767.4619 307.26004c19.880432 -23.1875 -12.751099 -79.51892 15.845154 -90.249344c37.115784 -13.927261 68.74353 49.202103 81.29401 86.80577" fill-rule="evenodd"/><path fill="#000000" fill-opacity="0.0" d="m791.5748 292.10406c0 -17.375305 23.434021 -48.64206 36.51178 -37.202103c6.5424805 5.7231293 6.177307 16.821243 5.511841 25.488174c-0.17932129 2.335205 0.7168579 7.937195 -1.3779907 6.8897705c-4.076782 -2.038391 -5.8064575 -8.423767 -10.333313 -8.955383c-5.885742 -0.6911926 -10.991211 5.533661 -14.467224 10.3333435c-4.6036987 6.3568726 -16.068665 22.912537 -8.2677 22.047241c3.104309 -0.34432983 6.180664 -2.7182007 7.5774536 -5.5118103" fill-rule="evenodd"/><path stroke="#000000" stroke-width="1.0" stroke-linejoin="round" stroke-linecap="butt" d="m791.5748 292.10406c0 -17.375305 23.434021 -48.64206 36.51178 -37.202103c6.5424805 5.7231293 6.177307 16.821243 5.511841 25.488174c-0.17932129 2.335205 0.7168579 7.937195 -1.3779907 6.8897705c-4.076782 -2.038391 -5.8064575 -8.423767 -10.333313 -8.955383c-5.885742 -0.6911926 -10.991211 5.533661 -14.467224 10.3333435c-4.6036987 6.3568726 -16.068665 22.912537 -8.2677 22.047241c3.104309 -0.34432983 6.180664 -2.7182007 7.5774536 -5.5118103" fill-rule="evenodd"/><path fill="#000000" fill-opacity="0.0" d="m788.1291 246.63518c-3.1085205 -7.7831116 -2.973877 29.241165 4.13385 24.800522c12.17511 -7.606537 8.846741 -42.713913 -5.5091553 -42.713913c-10.854492 0 -11.922119 25.599838 -3.446228 32.38057" fill-rule="evenodd"/><path stroke="#000000" stroke-width="1.0" stroke-linejoin="round" stroke-linecap="butt" d="m788.1291 246.63518c-3.1085205 -7.7831116 -2.973877 29.241165 4.13385 24.800522c12.17511 -7.606537 8.846741 -42.713913 -5.5091553 -42.713913c-10.854492 0 -11.922119 25.599838 -3.446228 32.38057" fill-rule="evenodd"/><path fill="#000000" fill-opacity="0.0" d="m808.799 232.16841c-0.5128174 8.18988 1.1696777 28.548782 7.5774536 23.422577c8.571655 -6.857361 0.45758057 -37.337616 -8.955383 -31.690292c-9.484924 5.69046 -3.3769531 42.273315 2.7558594 33.068237" fill-rule="evenodd"/><path stroke="#000000" stroke-width="1.0" stroke-linejoin="round" stroke-linecap="butt" d="m808.799 232.16841c-0.5128174 8.18988 1.1696777 28.548782 7.5774536 23.422577c8.571655 -6.857361 0.45758057 -37.337616 -8.955383 -31.690292c-9.484924 5.69046 -3.3769531 42.273315 2.7558594 33.068237" fill-rule="evenodd"/><path fill="#000000" fill-opacity="0.0" d="m775.7297 256.9685c0 13.8263855 7.820862 -28.220764 3.4435425 -41.335953" fill-rule="evenodd"/><path stroke="#000000" stroke-width="1.0" stroke-linejoin="round" stroke-linecap="butt" d="m775.7297 256.9685c0 13.8263855 7.820862 -28.220764 3.4435425 -41.335953" fill-rule="evenodd"/><path fill="#000000" fill-opacity="0.0" d="m820.5092 230.78906c-3.2680054 -3.2679596 -8.0177 -7.662613 -12.401611 -6.199463" fill-rule="evenodd"/><path stroke="#000000" stroke-width="1.0" stroke-linejoin="round" stroke-linecap="butt" d="m820.5092 230.78906c-3.2680054 -3.2679596 -8.0177 -7.662613 -12.401611 -6.199463" fill-rule="evenodd"/><path fill="#000000" fill-opacity="0.0" d="m821.19946 233.54694c1.6054688 -7.2368927 0.27056885 -16.907425 6.199463 -21.356949c7.039856 -5.283249 6.8897705 34.29265 6.8897705 25.490814" fill-rule="evenodd"/><path stroke="#000000" stroke-width="1.0" stroke-linejoin="round" stroke-linecap="butt" d="m821.19946 233.54694c1.6054688 -7.2368927 0.27056885 -16.907425 6.199463 -21.356949c7.039856 -5.283249 6.8897705 34.29265 6.8897705 25.490814" fill-rule="evenodd"/><path fill="#000000" fill-opacity="0.0" d="m819.1312 229.41208c5.253662 -0.8772888 10.518738 -2.065628 15.845154 -2.065628" fill-rule="evenodd"/><path stroke="#000000" stroke-width="1.0" stroke-linejoin="round" stroke-linecap="butt" d="m819.1312 229.41208c5.253662 -0.8772888 10.518738 -2.065628 15.845154 -2.065628" fill-rule="evenodd"/><path fill="#000000" fill-opacity="0.0" d="m841.86615 240.4357c1.5950928 -8.774536 5.51178 -17.262772 5.51178 -26.181107" fill-rule="evenodd"/><path stroke="#000000" stroke-width="1.0" stroke-linejoin="round" stroke-linecap="butt" d="m841.86615 240.4357c1.5950928 -8.774536 5.51178 -17.262772 5.51178 -26.181107" fill-rule="evenodd"/><path fill="#000000" fill-opacity="0.0" d="m850.82153 241.81364c0 -8.270889 1.921814 -16.954697 -0.6876831 -24.803146" fill-rule="evenodd"/><path stroke="#000000" stroke-width="1.0" stroke-linejoin="round" stroke-linecap="butt" d="m850.82153 241.81364c0 -8.270889 1.921814 -16.954697 -0.6876831 -24.803146" fill-rule="evenodd"/><path fill="#000000" fill-opacity="0.0" d="m839.80054 236.9895c4.82782 0 9.639343 -0.68766785 14.467163 -0.68766785" fill-rule="evenodd"/><path stroke="#000000" stroke-width="1.0" stroke-linejoin="round" stroke-linecap="butt" d="m839.80054 236.9895c4.82782 0 9.639343 -0.68766785 14.467163 -0.68766785" fill-rule="evenodd"/><path fill="#000000" fill-opacity="0.0" d="m773.66205 131.5853c-4.8724365 1.6220856 10.022156 2.7559052 15.157471 2.7559052" fill-rule="evenodd"/><path stroke="#000000" stroke-width="1.0" stroke-linejoin="round" stroke-linecap="butt" d="m773.66205 131.5853c-4.8724365 1.6220856 10.022156 2.7559052 15.157471 2.7559052" fill-rule="evenodd"/><path fill="#000000" fill-opacity="0.0" d="m803.2861 155.69896c6.230957 -12.4618225 5.92688 -27.405869 6.199463 -41.335953c0.9684448 -49.48014 -0.1116333 -20.165108 0 -19.979004c6.463928 10.773155 8.517456 23.674042 11.713928 35.824142c0.5404053 2.0540009 4.7178345 15.513412 4.821533 15.845154c0.64990234 2.0789642 0.7592163 7.9424133 2.0656128 6.199478c11.141357 -14.864609 8.2677 -36.536346 8.2677 -55.11287" fill-rule="evenodd"/><path stroke="#000000" stroke-width="1.0" stroke-linejoin="round" stroke-linecap="butt" d="m803.2861 155.69896c6.230957 -12.4618225 5.92688 -27.405869 6.199463 -41.335953c0.9684448 -49.48014 -0.1116333 -20.165108 0 -19.979004c6.463928 10.773155 8.517456 23.674042 11.713928 35.824142c0.5404053 2.0540009 4.7178345 15.513412 4.821533 15.845154c0.64990234 2.0789642 0.7592163 7.9424133 2.0656128 6.199478c11.141357 -14.864609 8.2677 -36.536346 8.2677 -55.11287" fill-rule="evenodd"/><path fill="#000000" fill-opacity="0.0" d="m846.0013 152.94226c0.38720703 -3.492218 1.4453735 -10.335968 -2.0682373 -10.335968c-6.984009 0 -9.011841 11.64563 -9.643066 18.601059c-0.5355835 5.901932 8.774719 -8.749634 10.333374 -14.467194c0.9682617 -3.552063 -2.376587 8.982742 0.6876221 11.023621c2.550476 1.6986847 6.5059814 -0.22775269 8.958008 -2.0656128" fill-rule="evenodd"/><path stroke="#000000" stroke-width="1.0" stroke-linejoin="round" stroke-linecap="butt" d="m846.0013 152.94226c0.38720703 -3.492218 1.4453735 -10.335968 -2.0682373 -10.335968c-6.984009 0 -9.011841 11.64563 -9.643066 18.601059c-0.5355835 5.901932 8.774719 -8.749634 10.333374 -14.467194c0.9682617 -3.552063 -2.376587 8.982742 0.6876221 11.023621c2.550476 1.6986847 6.5059814 -0.22775269 8.958008 -2.0656128" fill-rule="evenodd"/><path fill="#000000" fill-opacity="0.0" d="m868.73425 139.16194c-6.949829 -3.4749298 -17.859497 13.155151 -13.089233 19.288712c5.1987915 6.6845245 14.482666 -11.072464 16.532837 -19.288712" fill-rule="evenodd"/><path stroke="#000000" stroke-width="1.0" stroke-linejoin="round" stroke-linecap="butt" d="m868.73425 139.16194c-6.949829 -3.4749298 -17.859497 13.155151 -13.089233 19.288712c5.1987915 6.6845245 14.482666 -11.072464 16.532837 -19.288712" fill-rule="evenodd"/><path fill="#000000" fill-opacity="0.0" d="m877.68945 110.91601c-6.4039917 11.062241 -10.91394 23.757149 -11.711304 36.514442c-0.34490967 5.519272 -3.567627 19.007172 1.3779907 16.532806c7.539734 -3.7722626 8.361877 -14.643295 12.398926 -22.044617c1.1067505 -2.0289917 0.68096924 -5.9823914 2.0682373 -4.1338654c4.6884766 6.247299 -3.154663 30.834534 -0.6902466 23.422577" fill-rule="evenodd"/><path stroke="#000000" stroke-width="1.0" stroke-linejoin="round" stroke-linecap="butt" d="m877.68945 110.91601c-6.4039917 11.062241 -10.91394 23.757149 -11.711304 36.514442c-0.34490967 5.519272 -3.567627 19.007172 1.3779907 16.532806c7.539734 -3.7722626 8.361877 -14.643295 12.398926 -22.044617c1.1067505 -2.0289917 0.68096924 -5.9823914 2.0682373 -4.1338654c4.6884766 6.247299 -3.154663 30.834534 -0.6902466 23.422577" fill-rule="evenodd"/><path fill="#000000" fill-opacity="0.0" d="m886.6457 155.69821c0.9577637 4.787079 5.99646 14.264008 9.64563 11.020996c5.3900146 -4.7901154 9.074402 -16.852325 3.4436035 -21.356964c-5.538574 -4.4308624 -16.233826 14.664917 -10.333374 18.601059" fill-rule="evenodd"/><path stroke="#000000" stroke-width="1.0" stroke-linejoin="round" stroke-linecap="butt" d="m886.6457 155.69821c0.9577637 4.787079 5.99646 14.264008 9.64563 11.020996c5.3900146 -4.7901154 9.074402 -16.852325 3.4436035 -21.356964c-5.538574 -4.4308624 -16.233826 14.664917 -10.333374 18.601059" fill-rule="evenodd"/><path fill="#000000" fill-opacity="0.0" d="m116.42782 115.049866c0.74207306 9.627174 1.3779526 19.278656 1.3779526 28.934387" fill-rule="evenodd"/><path stroke="#000000" stroke-width="1.0" stroke-linejoin="round" stroke-linecap="butt" d="m116.42782 115.049866c0.74207306 9.627174 1.3779526 19.278656 1.3779526 28.934387" fill-rule="evenodd"/><path fill="#000000" fill-opacity="0.0" d="m117.11811 132.96326c4.584465 -0.3533783 9.178841 -0.69029236 13.776909 -0.69029236" fill-rule="evenodd"/><path stroke="#000000" stroke-width="1.0" stroke-linejoin="round" stroke-linecap="butt" d="m117.11811 132.96326c4.584465 -0.3533783 9.178841 -0.69029236 13.776909 -0.69029236" fill-rule="evenodd"/><path fill="#000000" fill-opacity="0.0" d="m130.20735 113.672005c2.9022827 -8.717949 -0.69029236 18.36808 -0.69029236 27.556435" fill-rule="evenodd"/><path stroke="#000000" stroke-width="1.0" stroke-linejoin="round" stroke-linecap="butt" d="m130.20735 113.672005c2.9022827 -8.717949 -0.69029236 18.36808 -0.69029236 27.556435" fill-rule="evenodd"/><path fill="#000000" fill-opacity="0.0" d="m139.8534 125.38411c0 5.6812286 -0.49194336 19.837341 4.1312256 16.53543c4.2617035 -3.0437317 4.1338654 -20.3945 4.1338654 -15.157478" fill-rule="evenodd"/><path stroke="#000000" stroke-width="1.0" stroke-linejoin="round" stroke-linecap="butt" d="m139.8534 125.38411c0 5.6812286 -0.49194336 19.837341 4.1312256 16.53543c4.2617035 -3.0437317 4.1338654 -20.3945 4.1338654 -15.157478" fill-rule="evenodd"/><path fill="#000000" fill-opacity="0.0" d="m159.14278 119.18372c0 10.344414 -8.678604 23.67411 -1.377945 31.002632c3.7696838 3.7840729 1.8889008 -12.590683 6.8897552 -14.467194c4.5552673 -1.7093201 4.821518 8.911484 4.821518 13.776901" fill-rule="evenodd"/><path stroke="#000000" stroke-width="1.0" stroke-linejoin="round" stroke-linecap="butt" d="m159.14278 119.18372c0 10.344414 -8.678604 23.67411 -1.377945 31.002632c3.7696838 3.7840729 1.8889008 -12.590683 6.8897552 -14.467194c4.5552673 -1.7093201 4.821518 8.911484 4.821518 13.776901" fill-rule="evenodd"/><path fill="#000000" fill-opacity="0.0" d="m181.87665 126.072784c1.1339874 -3.4034348 5.730072 -9.425461 8.267715 -6.889763c6.436737 6.431839 -4.8241577 17.769295 -4.8241577 26.868767" fill-rule="evenodd"/><path stroke="#000000" stroke-width="1.0" stroke-linejoin="round" stroke-linecap="butt" d="m181.87665 126.072784c1.1339874 -3.4034348 5.730072 -9.425461 8.267715 -6.889763c6.436737 6.431839 -4.8241577 17.769295 -4.8241577 26.868767" fill-rule="evenodd"/><path fill="#000000" fill-opacity="0.0" d="m185.3202 159.14174c0.36047363 -0.54037476 1.3779602 -0.72839355 1.3779602 -1.3779602" fill-rule="evenodd"/><path stroke="#000000" stroke-width="1.0" stroke-linejoin="round" stroke-linecap="butt" d="m185.3202 159.14174c0.36047363 -0.54037476 1.3779602 -0.72839355 1.3779602 -1.3779602" fill-rule="evenodd"/><path fill="#000000" fill-opacity="0.0" d="m520.8268 260.4147c5.8460693 -1.299408 7.7474976 -9.477493 9.64563 -15.157486" fill-rule="evenodd"/><path stroke="#000000" stroke-width="1.0" stroke-linejoin="round" stroke-linecap="butt" d="m520.8268 260.4147c5.8460693 -1.299408 7.7474976 -9.477493 9.64563 -15.157486" fill-rule="evenodd"/><path fill="#000000" fill-opacity="0.0" d="m549.76117 232.16798c1.0661011 4.256424 5.3063354 12.078583 8.958008 9.64566" fill-rule="evenodd"/><path stroke="#000000" stroke-width="1.0" stroke-linejoin="round" stroke-linecap="butt" d="m549.76117 232.16798c1.0661011 4.256424 5.3063354 12.078583 8.958008 9.64566" fill-rule="evenodd"/><path fill="#000000" fill-opacity="0.0" d="m486.91602 132.8084l396.8189 0l0 46.29921l-396.8189 0z" fill-rule="evenodd"/><path fill="#000000" d="m506.7129 147.36902l0.140625 2.90625l-0.359375 0q-0.09375 -0.765625 -0.265625 -1.09375q-0.28125 -0.53125 -0.75 -0.78125q-0.46875 -0.25 -1.234375 -0.25l-1.734375 0l0 9.4375q0 1.140625 0.234375 1.421875q0.34375 0.375 1.0625 0.375l0.4375 0l0 0.34375l-5.234375 0l0 -0.34375l0.4375 0q0.78125 0 1.109375 -0.46875q0.203125 -0.296875 0.203125 -1.328125l0 -9.4375l-1.484375 0q-0.875 0 -1.234375 0.125q-0.46875 0.171875 -0.8125 0.671875q-0.34375 0.484375 -0.40625 1.328125l-0.34375 0l0.140625 -2.90625l10.09375 0zm3.6303406 -0.59375l0 6.109375q1.015625 -1.125 1.609375 -1.4375q0.5937805 -0.3125 1.1875305 -0.3125q0.703125 0 1.203125 0.390625q0.515625 0.390625 0.765625 1.234375q0.171875 0.578125 0.171875 2.125l0 2.953125q0 0.796875 0.125 1.09375q0.09375 0.21875 0.3125 0.34375q0.21875 0.125 0.796875 0.125l0 0.328125l-4.09375 0l0 -0.328125l0.1875 0q0.59375 0 0.8125 -0.171875q0.234375 -0.1875 0.328125 -0.53125q0.015625 -0.140625 0.015625 -0.859375l0 -2.953125q0 -1.359375 -0.140625 -1.78125q-0.140625 -0.4375 -0.453125 -0.640625q-0.296875 -0.21875 -0.734375 -0.21875q-0.45315552 0 -0.9375305 0.234375q-0.484375 0.234375 -1.15625 0.953125l0 4.40625q0 0.859375 0.09375 1.078125q0.09375 0.203125 0.359375 0.34375q0.265625 0.140625 0.890625 0.140625l0 0.328125l-4.125 0l0 -0.328125q0.546875 0 0.875 -0.171875q0.171875 -0.09375 0.28125 -0.34375q0.109375 -0.265625 0.109375 -1.046875l0 -7.546875q0 -1.4375 -0.0625 -1.765625q-0.0625 -0.328125 -0.203125 -0.4375q-0.140625 -0.125 -0.390625 -0.125q-0.1875 0 -0.609375 0.15625l-0.125 -0.328125l2.484375 -1.015625l0.421875 0zm8.2812805 7.75q0 1.859375 0.90625 2.921875q0.90625 1.046875 2.140625 1.046875q0.8125 0 1.421875 -0.4375q0.609375 -0.453125 1.015625 -1.546875l0.28125 0.171875q-0.1875 1.25 -1.109375 2.28125q-0.921875 1.015625 -2.296875 1.015625q-1.515625 0 -2.59375 -1.171875q-1.0625 -1.171875 -1.0625 -3.140625q0 -2.140625 1.09375 -3.328125q1.109375 -1.203125 2.765625 -1.203125q1.40625 0 2.296875 0.921875q0.90625 0.921875 0.90625 2.46875l-5.765625 0zm0 -0.53125l3.859375 0q-0.046875 -0.796875 -0.1875 -1.125q-0.234375 -0.515625 -0.6875 -0.796875q-0.4375 -0.296875 -0.9375 -0.296875q-0.75 0 -1.34375 0.59375q-0.59375 0.578125 -0.703125 1.625zm11.085205 -2.609375l3.484375 0l0 0.34375q-0.46875 0.03125 -0.625 0.171875q-0.15625 0.125 -0.15625 0.390625q0 0.28125 0.15625 0.671875l1.78125 4.8125l1.796875 -3.90625l-0.46875 -1.234375q-0.21875 -0.546875 -0.578125 -0.765625q-0.203125 -0.125 -0.75 -0.140625l0 -0.34375l3.984375 0l0 0.34375q-0.65625 0.015625 -0.9375 0.234375q-0.171875 0.140625 -0.171875 0.453125q0 0.1875 0.0625 0.375l1.890625 4.796875l1.765625 -4.625q0.1875 -0.484375 0.1875 -0.78125q0 -0.171875 -0.1875 -0.296875q-0.171875 -0.140625 -0.6875 -0.15625l0 -0.34375l2.625 0l0 0.34375q-0.796875 0.109375 -1.15625 1.0625l-2.796875 7.1875l-0.375 0l-2.078125 -5.328125l-2.4375 5.328125l-0.328125 0l-2.6875 -7.015625q-0.265625 -0.65625 -0.515625 -0.890625q-0.25 -0.234375 -0.796875 -0.34375l0 -0.34375zm18.660461 7.140625q-1.28125 1.0 -1.609375 1.15625q-0.5 0.21875 -1.046875 0.21875q-0.875 0 -1.4375 -0.59375q-0.546875 -0.59375 -0.546875 -1.5625q0 -0.609375 0.265625 -1.046875q0.375 -0.625 1.296875 -1.171875q0.921875 -0.546875 3.078125 -1.328125l0 -0.328125q0 -1.25 -0.40625 -1.703125q-0.390625 -0.46875 -1.140625 -0.46875q-0.578125 0 -0.921875 0.3125q-0.34375 0.296875 -0.34375 0.703125l0.015625 0.53125q0 0.421875 -0.21875 0.65625q-0.203125 0.21875 -0.546875 0.21875q-0.34375 0 -0.5625 -0.234375q-0.203125 -0.234375 -0.203125 -0.65625q0 -0.78125 0.796875 -1.4375q0.8125 -0.65625 2.25 -0.65625q1.109375 0 1.828125 0.375q0.53125 0.28125 0.796875 0.890625q0.15625 0.390625 0.15625 1.59375l0 2.84375q0 1.1875 0.046875 1.453125q0.046875 0.265625 0.140625 0.359375q0.109375 0.09375 0.25 0.09375q0.140625 0 0.25 -0.0625q0.203125 -0.125 0.75 -0.671875l0 0.515625q-1.03125 1.359375 -1.953125 1.359375q-0.453125 0 -0.71875 -0.296875q-0.265625 -0.3125 -0.265625 -1.0625zm0 -0.59375l0 -3.171875q-1.375 0.546875 -1.78125 0.765625q-0.71875 0.40625 -1.03125 0.84375q-0.296875 0.4375 -0.296875 0.953125q0 0.65625 0.390625 1.09375q0.390625 0.421875 0.890625 0.421875q0.703125 0 1.828125 -0.90625zm6.4211426 -11.15625l0 11.0625q0 0.78125 0.109375 1.046875q0.125 0.25 0.359375 0.390625q0.234375 0.125 0.875 0.125l0 0.328125l-4.09375 0l0 -0.328125q0.578125 0 0.78125 -0.109375q0.21875 -0.125 0.328125 -0.390625q0.125 -0.28125 0.125 -1.0625l0 -7.578125q0 -1.40625 -0.0625 -1.734375q-0.0625 -0.328125 -0.203125 -0.4375q-0.140625 -0.125 -0.359375 -0.125q-0.234375 0 -0.609375 0.15625l-0.140625 -0.328125l2.484375 -1.015625l0.40625 0zm5.1832886 0l0 11.0625q0 0.78125 0.109375 1.046875q0.125 0.25 0.359375 0.390625q0.234375 0.125 0.875 0.125l0 0.328125l-4.09375 0l0 -0.328125q0.578125 0 0.78125 -0.109375q0.21875 -0.125 0.328125 -0.390625q0.125 -0.28125 0.125 -1.0625l0 -7.578125q0 -1.40625 -0.0625 -1.734375q-0.0625 -0.328125 -0.203125 -0.4375q-0.140625 -0.125 -0.359375 -0.125q-0.234375 0 -0.609375 0.15625l-0.140625 -0.328125l2.484375 -1.015625l0.40625 0zm7.6989136 4.359375l0 2.84375l-0.296875 0q-0.34375 -1.34375 -0.890625 -1.8125q-0.53125 -0.484375 -1.375 -0.484375q-0.640625 0 -1.03125 0.34375q-0.390625 0.328125 -0.390625 0.734375q0 0.515625 0.296875 0.875q0.28125 0.375 1.140625 0.796875l1.328125 0.640625q1.859375 0.90625 1.859375 2.375q0 1.140625 -0.875 1.84375q-0.859375 0.6875 -1.921875 0.6875q-0.765625 0 -1.75 -0.265625q-0.296875 -0.09375 -0.484375 -0.09375q-0.21875 0 -0.328125 0.234375l-0.296875 0l0 -2.96875l0.296875 0q0.25 1.265625 0.96875 1.921875q0.71875 0.640625 1.609375 0.640625q0.640625 0 1.03125 -0.359375q0.390625 -0.375 0.390625 -0.90625q0 -0.625 -0.4375 -1.046875q-0.4375 -0.4375 -1.765625 -1.09375q-1.3125 -0.65625 -1.71875 -1.171875q-0.421875 -0.53125 -0.421875 -1.3125q0 -1.03125 0.703125 -1.71875q0.71875 -0.703125 1.828125 -0.703125q0.5 0 1.203125 0.21875q0.453125 0.125 0.609375 0.125q0.15625 0 0.234375 -0.0625q0.078125 -0.0625 0.1875 -0.28125l0.296875 0zm2.291565 11.703125l0 -0.40625q0.9375 -0.3125 1.453125 -0.96875q0.515625 -0.640625 0.515625 -1.375q0 -0.171875 -0.078125 -0.28125q-0.0625 -0.09375 -0.125 -0.09375q-0.109375 0 -0.4375 0.1875q-0.171875 0.078125 -0.34375 0.078125q-0.453125 0 -0.71875 -0.25q-0.265625 -0.265625 -0.265625 -0.734375q0 -0.453125 0.34375 -0.765625q0.34375 -0.328125 0.828125 -0.328125q0.609375 0 1.078125 0.53125q0.46875 0.515625 0.46875 1.390625q0 0.9375 -0.65625 1.734375q-0.65625 0.8125 -2.0625 1.28125zm11.328125 -14.203125l0 2.75l1.953125 0l0 0.640625l-1.953125 0l0 5.40625q0 0.8125 0.234375 1.09375q0.234375 0.28125 0.59375 0.28125q0.3125 0 0.59375 -0.1875q0.28125 -0.1875 0.4375 -0.546875l0.34375 0q-0.3125 0.890625 -0.90625 1.34375q-0.578125 0.453125 -1.1875 0.453125q-0.421875 0 -0.828125 -0.234375q-0.390625 -0.234375 -0.59375 -0.65625q-0.1875 -0.4375 -0.1875 -1.34375l0 -5.609375l-1.3125 0l0 -0.296875q0.5 -0.203125 1.015625 -0.6875q0.53125 -0.484375 0.9375 -1.125q0.203125 -0.359375 0.578125 -1.28125l0.28125 0zm5.2145386 -1.859375l0 6.109375q1.015625 -1.125 1.609375 -1.4375q0.59375 -0.3125 1.1875 -0.3125q0.703125 0 1.203125 0.390625q0.515625 0.390625 0.765625 1.234375q0.171875 0.578125 0.171875 2.125l0 2.953125q0 0.796875 0.125 1.09375q0.09375 0.21875 0.3125 0.34375q0.21875 0.125 0.796875 0.125l0 0.328125l-4.09375 0l0 -0.328125l0.1875 0q0.59375 0 0.8125 -0.171875q0.234375 -0.1875 0.328125 -0.53125q0.015625 -0.140625 0.015625 -0.859375l0 -2.953125q0 -1.359375 -0.140625 -1.78125q-0.140625 -0.4375 -0.453125 -0.640625q-0.296875 -0.21875 -0.734375 -0.21875q-0.453125 0 -0.9375 0.234375q-0.484375 0.234375 -1.15625 0.953125l0 4.40625q0 0.859375 0.09375 1.078125q0.09375 0.203125 0.359375 0.34375q0.265625 0.140625 0.890625 0.140625l0 0.328125l-4.125 0l0 -0.328125q0.546875 0 0.875 -0.171875q0.171875 -0.09375 0.28125 -0.34375q0.109375 -0.265625 0.109375 -1.046875l0 -7.546875q0 -1.4375 -0.0625 -1.765625q-0.0625 -0.328125 -0.203125 -0.4375q-0.140625 -0.125 -0.390625 -0.125q-0.1875 0 -0.609375 0.15625l-0.125 -0.328125l2.484375 -1.015625l0.421875 0zm8.28125 7.75q0 1.859375 0.90625 2.921875q0.90625 1.046875 2.140625 1.046875q0.8125 0 1.421875 -0.4375q0.609375 -0.453125 1.015625 -1.546875l0.28125 0.171875q-0.1875 1.25 -1.109375 2.28125q-0.921875 1.015625 -2.296875 1.015625q-1.515625 0 -2.59375 -1.171875q-1.0625 -1.171875 -1.0625 -3.140625q0 -2.140625 1.09375 -3.328125q1.109375 -1.203125 2.765625 -1.203125q1.40625 0 2.296875 0.921875q0.90625 0.921875 0.90625 2.46875l-5.765625 0zm0 -0.53125l3.859375 0q-0.046875 -0.796875 -0.1875 -1.125q-0.234375 -0.515625 -0.6875 -0.796875q-0.4375 -0.296875 -0.9375 -0.296875q-0.75 0 -1.34375 0.59375q-0.59375 0.578125 -0.703125 1.625zm6.4055176 -2.609375l3.890625 0l0 0.34375l-0.1875 0q-0.421875 0 -0.625 0.171875q-0.203125 0.171875 -0.203125 0.4375q0 0.359375 0.296875 0.984375l2.03125 4.203125l1.875 -4.609375q0.15625 -0.359375 0.15625 -0.734375q0 -0.15625 -0.0625 -0.234375q-0.078125 -0.109375 -0.234375 -0.15625q-0.15625 -0.0625 -0.546875 -0.0625l0 -0.34375l2.71875 0l0 0.34375q-0.34375 0.03125 -0.53125 0.140625q-0.171875 0.109375 -0.390625 0.40625q-0.078125 0.125 -0.3125 0.703125l-3.390625 8.328125q-0.5 1.203125 -1.296875 1.828125q-0.796875 0.625 -1.53125 0.625q-0.53125 0 -0.890625 -0.3125q-0.34375 -0.3125 -0.34375 -0.71875q0 -0.375 0.25 -0.609375q0.25 -0.234375 0.6875 -0.234375q0.3125 0 0.828125 0.203125q0.359375 0.140625 0.453125 0.140625q0.28125 0 0.59375 -0.28125q0.328125 -0.28125 0.65625 -1.09375l0.59375 -1.453125l-3.0 -6.296875q-0.140625 -0.28125 -0.4375 -0.703125q-0.234375 -0.3125 -0.375 -0.421875q-0.203125 -0.140625 -0.671875 -0.25l0 -0.34375zm11.390625 0.421875l0 -0.421875q0.9375 -0.5625 1.265625 -1.03125q0.25 -0.359375 0.25 -0.84375q0 -0.28125 -0.109375 -0.40625q-0.109375 -0.140625 -0.234375 -0.140625q-0.09375 0 -0.265625 0.0625q-0.234375 0.078125 -0.390625 0.078125q-0.359375 0 -0.640625 -0.265625q-0.28125 -0.28125 -0.28125 -0.6875q0 -0.453125 0.28125 -0.703125q0.375 -0.359375 0.90625 -0.359375q0.609375 0 1.09375 0.515625q0.484375 0.515625 0.484375 1.28125q0 1.078125 -0.8125 1.96875q-0.53125 0.578125 -1.546875 0.953125zm7.0720825 -0.671875l0 1.875q1.046875 -1.875 2.140625 -1.875q0.5 0 0.828125 0.3125q0.328125 0.296875 0.328125 0.703125q0 0.359375 -0.234375 0.609375q-0.234375 0.234375 -0.5625 0.234375q-0.328125 0 -0.71875 -0.3125q-0.390625 -0.3125 -0.578125 -0.3125q-0.171875 0 -0.359375 0.1875q-0.40625 0.359375 -0.84375 1.21875l0 4.0q0 0.703125 0.171875 1.046875q0.109375 0.25 0.40625 0.421875q0.3125 0.15625 0.875 0.15625l0 0.328125l-4.28125 0l0 -0.328125q0.640625 0 0.953125 -0.203125q0.234375 -0.140625 0.3125 -0.46875q0.046875 -0.140625 0.046875 -0.875l0 -3.234375q0 -1.453125 -0.0625 -1.734375q-0.046875 -0.28125 -0.21875 -0.40625q-0.15625 -0.125 -0.390625 -0.125q-0.28125 0 -0.640625 0.140625l-0.078125 -0.328125l2.515625 -1.03125l0.390625 0zm5.1657715 3.390625q0 1.859375 0.90625 2.921875q0.90625 1.046875 2.140625 1.046875q0.8125 0 1.421875 -0.4375q0.609375 -0.453125 1.015625 -1.546875l0.28125 0.171875q-0.1875 1.25 -1.109375 2.28125q-0.921875 1.015625 -2.296875 1.015625q-1.515625 0 -2.59375 -1.171875q-1.0625 -1.171875 -1.0625 -3.140625q0 -2.140625 1.09375 -3.328125q1.109375 -1.203125 2.765625 -1.203125q1.40625 0 2.296875 0.921875q0.90625 0.921875 0.90625 2.46875l-5.765625 0zm0 -0.53125l3.859375 0q-0.046875 -0.796875 -0.1875 -1.125q-0.234375 -0.515625 -0.6875 -0.796875q-0.4375 -0.296875 -0.9375 -0.296875q-0.75 0 -1.34375 0.59375q-0.59375 0.578125 -0.703125 1.625z" fill-rule="nonzero"/><path fill="#000000" d="m536.2363 178.55652q-0.34375 1.65625 -1.328125 2.546875q-0.984375 0.875 -2.171875 0.875q-1.421875 0 -2.484375 -1.1875q-1.046875 -1.1875 -1.046875 -3.21875q0 -1.96875 1.171875 -3.203125q1.171875 -1.234375 2.8125 -1.234375q1.21875 0 2.015625 0.65625q0.796875 0.65625 0.796875 1.34375q0 0.359375 -0.234375 0.578125q-0.21875 0.203125 -0.609375 0.203125q-0.546875 0 -0.8125 -0.34375q-0.15625 -0.1875 -0.21875 -0.71875q-0.046875 -0.546875 -0.359375 -0.828125q-0.328125 -0.28125 -0.890625 -0.28125q-0.90625 0 -1.46875 0.671875q-0.734375 0.90625 -0.734375 2.359375q0 1.5 0.734375 2.640625q0.734375 1.140625 1.984375 1.140625q0.890625 0 1.609375 -0.609375q0.5 -0.421875 0.96875 -1.515625l0.265625 0.125zm4.0617676 -9.78125l0 11.0625q0 0.78125 0.109375 1.046875q0.125 0.25 0.359375 0.390625q0.234375 0.125 0.875 0.125l0 0.328125l-4.09375 0l0 -0.328125q0.578125 0 0.78125 -0.109375q0.21875 -0.125 0.328125 -0.390625q0.125 -0.28125 0.125 -1.0625l0 -7.578125q0 -1.40625 -0.0625 -1.734375q-0.0625 -0.328125 -0.203125 -0.4375q-0.140625 -0.125 -0.359375 -0.125q-0.234375 0 -0.609375 0.15625l-0.140625 -0.328125l2.484375 -1.015625l0.40625 0zm6.4020386 4.359375q1.890625 0 3.03125 1.4375q0.984375 1.234375 0.984375 2.828125q0 1.125 -0.546875 2.28125q-0.53125 1.140625 -1.484375 1.71875q-0.9375 0.578125 -2.09375 0.578125q-1.890625 0 -3.0 -1.5q-0.9375 -1.265625 -0.9375 -2.84375q0 -1.140625 0.5625 -2.265625q0.578125 -1.140625 1.5 -1.6875q0.9375 -0.546875 1.984375 -0.546875zm-0.296875 0.59375q-0.46875 0 -0.96875 0.296875q-0.484375 0.28125 -0.78125 1.0q-0.296875 0.71875 -0.296875 1.84375q0 1.828125 0.71875 3.15625q0.71875 1.3125 1.90625 1.3125q0.890625 0 1.453125 -0.71875q0.578125 -0.734375 0.578125 -2.515625q0 -2.21875 -0.953125 -3.5q-0.640625 -0.875 -1.65625 -0.875zm10.921875 -0.59375l0 2.84375l-0.296875 0q-0.34375 -1.34375 -0.890625 -1.8125q-0.53125 -0.484375 -1.375 -0.484375q-0.640625 0 -1.03125 0.34375q-0.390625 0.328125 -0.390625 0.734375q0 0.515625 0.296875 0.875q0.28125 0.375 1.140625 0.796875l1.328125 0.640625q1.859375 0.90625 1.859375 2.375q0 1.140625 -0.875 1.84375q-0.859375 0.6875 -1.921875 0.6875q-0.765625 0 -1.75 -0.265625q-0.296875 -0.09375 -0.484375 -0.09375q-0.21875 0 -0.328125 0.234375l-0.296875 0l0 -2.96875l0.296875 0q0.25 1.265625 0.96875 1.921875q0.71875 0.640625 1.609375 0.640625q0.640625 0 1.03125 -0.359375q0.390625 -0.375 0.390625 -0.90625q0 -0.625 -0.4375 -1.046875q-0.4375 -0.4375 -1.765625 -1.09375q-1.3125 -0.65625 -1.71875 -1.171875q-0.421875 -0.53125 -0.421875 -1.3125q0 -1.03125 0.703125 -1.71875q0.71875 -0.703125 1.828125 -0.703125q0.5 0 1.203125 0.21875q0.453125 0.125 0.609375 0.125q0.15625 0 0.234375 -0.0625q0.078125 -0.0625 0.1875 -0.28125l0.296875 0zm3.99469 -4.359375q0.390625 0 0.65625 0.265625q0.265625 0.265625 0.265625 0.65625q0 0.375 -0.265625 0.65625q-0.265625 0.265625 -0.65625 0.265625q-0.375 0 -0.65625 -0.265625q-0.265625 -0.28125 -0.265625 -0.65625q0 -0.390625 0.265625 -0.65625q0.265625 -0.265625 0.65625 -0.265625zm0.765625 4.359375l0 6.703125q0 0.78125 0.109375 1.046875q0.109375 0.265625 0.328125 0.390625q0.234375 0.125 0.828125 0.125l0 0.328125l-4.0625 0l0 -0.328125q0.609375 0 0.8125 -0.109375q0.21875 -0.125 0.34375 -0.390625q0.125 -0.28125 0.125 -1.0625l0 -3.203125q0 -1.359375 -0.078125 -1.765625q-0.078125 -0.296875 -0.21875 -0.40625q-0.125 -0.109375 -0.359375 -0.109375q-0.265625 0 -0.625 0.140625l-0.125 -0.328125l2.515625 -1.03125l0.40625 0zm4.7301636 1.765625q1.46875 -1.765625 2.796875 -1.765625q0.6875 0 1.171875 0.34375q0.5 0.34375 0.78125 1.125q0.203125 0.546875 0.203125 1.671875l0 3.5625q0 0.796875 0.125 1.078125q0.109375 0.234375 0.328125 0.359375q0.21875 0.125 0.828125 0.125l0 0.328125l-4.125 0l0 -0.328125l0.171875 0q0.578125 0 0.8125 -0.171875q0.234375 -0.1875 0.328125 -0.53125q0.03125 -0.140625 0.03125 -0.859375l0 -3.40625q0 -1.140625 -0.296875 -1.65625q-0.296875 -0.515625 -1.0 -0.515625q-1.078125 0 -2.15625 1.1875l0 4.390625q0 0.859375 0.09375 1.046875q0.140625 0.265625 0.359375 0.390625q0.21875 0.125 0.90625 0.125l0 0.328125l-4.125 0l0 -0.328125l0.171875 0q0.640625 0 0.859375 -0.3125q0.234375 -0.328125 0.234375 -1.25l0 -3.09375q0 -1.5 -0.078125 -1.828125q-0.0625 -0.328125 -0.203125 -0.4375q-0.140625 -0.125 -0.375 -0.125q-0.265625 0 -0.609375 0.140625l-0.140625 -0.328125l2.515625 -1.03125l0.390625 0l0 1.765625zm9.125 3.78125q-0.765625 -0.375 -1.171875 -1.03125q-0.40625 -0.671875 -0.40625 -1.484375q0 -1.25 0.921875 -2.140625q0.9375 -0.890625 2.40625 -0.890625q1.1875 0 2.0625 0.59375l1.765625 0q0.390625 0 0.453125 0.015625q0.0625 0.015625 0.09375 0.078125q0.046875 0.078125 0.046875 0.296875q0 0.234375 -0.03125 0.328125q-0.03125 0.046875 -0.109375 0.078125q-0.0625 0.015625 -0.453125 0.015625l-1.078125 0q0.5 0.65625 0.5 1.671875q0 1.171875 -0.890625 2.0q-0.890625 0.828125 -2.390625 0.828125q-0.625 0 -1.265625 -0.1875q-0.40625 0.359375 -0.546875 0.625q-0.140625 0.25 -0.140625 0.421875q0 0.15625 0.140625 0.3125q0.15625 0.140625 0.59375 0.203125q0.265625 0.03125 1.28125 0.0625q1.875 0.046875 2.421875 0.125q0.859375 0.125 1.359375 0.640625q0.5 0.5 0.5 1.25q0 1.03125 -0.953125 1.9375q-1.421875 1.328125 -3.71875 1.328125q-1.75 0 -2.96875 -0.796875q-0.671875 -0.453125 -0.671875 -0.953125q0 -0.21875 0.09375 -0.4375q0.15625 -0.328125 0.640625 -0.9375q0.0625 -0.078125 0.921875 -0.984375q-0.46875 -0.28125 -0.671875 -0.5q-0.1875 -0.21875 -0.1875 -0.5q0 -0.328125 0.25 -0.75q0.265625 -0.4375 1.203125 -1.21875zm1.59375 -5.109375q-0.6875 0 -1.140625 0.546875q-0.453125 0.53125 -0.453125 1.640625q0 1.4375 0.625 2.234375q0.46875 0.59375 1.203125 0.59375q0.6875 0 1.125 -0.515625q0.453125 -0.515625 0.453125 -1.625q0 -1.453125 -0.625 -2.265625q-0.46875 -0.609375 -1.1875 -0.609375zm-1.6875 8.15625q-0.421875 0.46875 -0.640625 0.859375q-0.21875 0.40625 -0.21875 0.75q0 0.4375 0.53125 0.765625q0.90625 0.5625 2.625 0.5625q1.640625 0 2.421875 -0.578125q0.78125 -0.578125 0.78125 -1.234375q0 -0.484375 -0.46875 -0.671875q-0.46875 -0.203125 -1.875 -0.25q-2.046875 -0.046875 -3.15625 -0.203125zm13.9765625 -12.953125q0.390625 0 0.65625 0.265625q0.265625 0.265625 0.265625 0.65625q0 0.375 -0.265625 0.65625q-0.265625 0.265625 -0.65625 0.265625q-0.375 0 -0.65625 -0.265625q-0.265625 -0.28125 -0.265625 -0.65625q0 -0.390625 0.265625 -0.65625q0.265625 -0.265625 0.65625 -0.265625zm0.765625 4.359375l0 6.703125q0 0.78125 0.109375 1.046875q0.109375 0.265625 0.328125 0.390625q0.234375 0.125 0.828125 0.125l0 0.328125l-4.0625 0l0 -0.328125q0.609375 0 0.8125 -0.109375q0.21875 -0.125 0.34375 -0.390625q0.125 -0.28125 0.125 -1.0625l0 -3.203125q0 -1.359375 -0.078125 -1.765625q-0.078125 -0.296875 -0.21875 -0.40625q-0.125 -0.109375 -0.359375 -0.109375q-0.265625 0 -0.625 0.140625l-0.125 -0.328125l2.515625 -1.03125l0.40625 0zm4.7301636 1.765625q1.46875 -1.765625 2.796875 -1.765625q0.6875 0 1.171875 0.34375q0.5 0.34375 0.78125 1.125q0.203125 0.546875 0.203125 1.671875l0 3.5625q0 0.796875 0.125 1.078125q0.109375 0.234375 0.328125 0.359375q0.21875 0.125 0.828125 0.125l0 0.328125l-4.125 0l0 -0.328125l0.171875 0q0.578125 0 0.8125 -0.171875q0.234375 -0.1875 0.328125 -0.53125q0.03125 -0.140625 0.03125 -0.859375l0 -3.40625q0 -1.140625 -0.296875 -1.65625q-0.296875 -0.515625 -1.0 -0.515625q-1.078125 0 -2.15625 1.1875l0 4.390625q0 0.859375 0.09375 1.046875q0.140625 0.265625 0.359375 0.390625q0.21875 0.125 0.90625 0.125l0 0.328125l-4.125 0l0 -0.328125l0.171875 0q0.640625 0 0.859375 -0.3125q0.234375 -0.328125 0.234375 -1.25l0 -3.09375q0 -1.5 -0.078125 -1.828125q-0.0625 -0.328125 -0.203125 -0.4375q-0.140625 -0.125 -0.375 -0.125q-0.265625 0 -0.609375 0.140625l-0.140625 -0.328125l2.515625 -1.03125l0.390625 0l0 1.765625zm9.59375 3.5625l-0.34375 0l-0.8125 -7.390625q-0.046875 -0.46875 -0.046875 -0.71875q0 -0.5625 0.296875 -0.90625q0.3125 -0.359375 0.734375 -0.359375q0.4375 0 0.734375 0.359375q0.296875 0.34375 0.296875 1.015625q0 0.21875 -0.046875 0.609375l-0.8125 7.390625zm-0.1875 1.5q0.421875 0 0.71875 0.296875q0.296875 0.296875 0.296875 0.71875q0 0.40625 -0.296875 0.703125q-0.296875 0.296875 -0.71875 0.296875q-0.421875 0 -0.71875 -0.296875q-0.28125 -0.296875 -0.28125 -0.703125q0 -0.421875 0.28125 -0.71875q0.296875 -0.296875 0.71875 -0.296875z" fill-rule="nonzero"/><path fill="#000000" fill-opacity="0.0" d="m764.70557 244.56975c2.5131226 7.5202484 -2.4134521 -15.685028 -4.13385 -23.425186c-0.45111084 -2.0296478 -2.7263184 -6.608139 -0.6876831 -6.199478c4.95874 0.9940033 7.3757935 7.041733 11.711304 9.64566" fill-rule="evenodd"/><path stroke="#000000" stroke-width="1.0" stroke-linejoin="round" stroke-linecap="butt" d="m764.70557 244.56975c2.5131226 7.5202484 -2.4134521 -15.685028 -4.13385 -23.425186c-0.45111084 -2.0296478 -2.7263184 -6.608139 -0.6876831 -6.199478c4.95874 0.9940033 7.3757935 7.041733 11.711304 9.64566" fill-rule="evenodd"/><path fill="#000000" fill-opacity="0.0" d="m762.64044 232.85564c2.9085083 -4.3599854 5.921936 -8.804138 7.5773926 -13.776901" fill-rule="evenodd"/><path stroke="#000000" stroke-width="1.0" stroke-linejoin="round" stroke-linecap="butt" d="m762.64044 232.85564c2.9085083 -4.3599854 5.921936 -8.804138 7.5773926 -13.776901" fill-rule="evenodd"/><path fill="#000000" fill-opacity="0.0" d="m775.03937 225.27821c0 -6.6636353 0.6903076 -13.315353 0.6903076 -19.979004" fill-rule="evenodd"/><path stroke="#000000" stroke-width="1.0" stroke-linejoin="round" stroke-linecap="butt" d="m775.03937 225.27821c0 -6.6636353 0.6903076 -13.315353 0.6903076 -19.979004" fill-rule="evenodd"/><path fill="#000000" fill-opacity="0.0" d="m775.03937 208.7454c4.9677734 0 9.644714 4.1324463 12.40155 8.265091" fill-rule="evenodd"/><path stroke="#000000" stroke-width="1.0" stroke-linejoin="round" stroke-linecap="butt" d="m775.03937 208.7454c4.9677734 0 9.644714 4.1324463 12.40155 8.265091" fill-rule="evenodd"/><path fill="#000000" fill-opacity="0.0" d="m772.97375 218.38846c4.602356 -2.0459442 9.000122 -4.6103973 13.779541 -6.199478" fill-rule="evenodd"/><path stroke="#000000" stroke-width="1.0" stroke-linejoin="round" stroke-linecap="butt" d="m772.97375 218.38846c4.602356 -2.0459442 9.000122 -4.6103973 13.779541 -6.199478" fill-rule="evenodd"/><path fill="#000000" fill-opacity="0.0" d="m800.5302 223.2126c2.3886719 -4.7774353 4.4992065 -9.690674 6.8897095 -14.467194" fill-rule="evenodd"/><path stroke="#000000" stroke-width="1.0" stroke-linejoin="round" stroke-linecap="butt" d="m800.5302 223.2126c2.3886719 -4.7774353 4.4992065 -9.690674 6.8897095 -14.467194" fill-rule="evenodd"/><path fill="#000000" fill-opacity="0.0" d="m807.4199 208.7454c1.9544678 5.8657684 3.324707 11.911896 4.821533 17.910767" fill-rule="evenodd"/><path stroke="#000000" stroke-width="1.0" stroke-linejoin="round" stroke-linecap="butt" d="m807.4199 208.7454c1.9544678 5.8657684 3.324707 11.911896 4.821533 17.910767" fill-rule="evenodd"/><path fill="#000000" fill-opacity="0.0" d="m801.90814 218.38885c4.2391357 -1.0577698 13.089233 -3.6788635 13.089233 0.69029236" fill-rule="evenodd"/><path stroke="#000000" stroke-width="1.0" stroke-linejoin="round" stroke-linecap="butt" d="m801.90814 218.38885c4.2391357 -1.0577698 13.089233 -3.6788635 13.089233 0.69029236" fill-rule="evenodd"/><path fill="#000000" fill-opacity="0.0" d="m839.80054 261.10236c0 -6.4947357 0.7017822 -13.126465 2.753296 -19.288712" fill-rule="evenodd"/><path stroke="#000000" stroke-width="1.0" stroke-linejoin="round" stroke-linecap="butt" d="m839.80054 261.10236c0 -6.4947357 0.7017822 -13.126465 2.753296 -19.288712" fill-rule="evenodd"/><path fill="#000000" fill-opacity="0.0" d="m844.6221 243.1916c2.390808 5.378174 3.5673218 11.268524 6.199463 16.532791" fill-rule="evenodd"/><path stroke="#000000" stroke-width="1.0" stroke-linejoin="round" stroke-linecap="butt" d="m844.6221 243.1916c2.390808 5.378174 3.5673218 11.268524 6.199463 16.532791" fill-rule="evenodd"/><path fill="#000000" fill-opacity="0.0" d="m838.42255 253.52493c2.5984497 -3.466751 6.6885986 -6.8897552 11.020996 -6.8897552" fill-rule="evenodd"/><path stroke="#000000" stroke-width="1.0" stroke-linejoin="round" stroke-linecap="butt" d="m838.42255 253.52493c2.5984497 -3.466751 6.6885986 -6.8897552 11.020996 -6.8897552" fill-rule="evenodd"/><path fill="#000000" fill-opacity="0.0" d="m178.43045 42.71391l396.81888 0l0 46.299213l-396.81888 0z" fill-rule="evenodd"/><path fill="#000000" d="m198.3992 64.94641l1.765625 0.453125q-0.5625 2.171875 -2.0 3.328125q-1.4375 1.140625 -3.53125 1.140625q-2.15625 0 -3.515625 -0.875q-1.34375 -0.890625 -2.0625 -2.546875q-0.703125 -1.671875 -0.703125 -3.5937538q0 -2.078125 0.796875 -3.625q0.796875 -1.5625 2.265625 -2.359375q1.484375 -0.8125 3.25 -0.8125q2.0 0 3.359375 1.015625q1.375 1.015625 1.90625 2.875l-1.734375 0.40625q-0.46875 -1.453125 -1.359375 -2.109375q-0.875 -0.671875 -2.203125 -0.671875q-1.546875 0 -2.578125 0.734375q-1.03125 0.734375 -1.453125 1.984375q-0.421875 1.234375 -0.421875 2.5625q0 1.7031288 0.5 2.9687538q0.5 1.265625 1.546875 1.90625q1.046875 0.625 2.265625 0.625q1.484375 0 2.515625 -0.859375q1.03125 -0.859375 1.390625 -2.546875zm3.6916962 4.6875l0 -13.359379l1.640625 0l0 13.359379l-1.640625 0zm10.504196 -1.1875q-0.921875 0.765625 -1.765625 1.09375q-0.828125 0.3125 -1.796875 0.3125q-1.59375 0 -2.453125 -0.78125q-0.859375 -0.78125 -0.859375 -1.984375q0 -0.71875 0.328125 -1.296875q0.328125 -0.59375 0.84375 -0.9375q0.53125 -0.359375 1.1875 -0.546875q0.46875 -0.125 1.453125 -0.25q1.984375 -0.23437881 2.921875 -0.5625038q0.015625 -0.34375 0.015625 -0.421875q0 -1.0 -0.46875 -1.421875q-0.625 -0.546875 -1.875 -0.546875q-1.15625 0 -1.703125 0.40625q-0.546875 0.40625 -0.8125 1.421875l-1.609375 -0.21875q0.21875 -1.015625 0.71875 -1.640625q0.5 -0.640625 1.453125 -0.984375q0.953125 -0.34375 2.1875 -0.34375q1.25 0 2.015625 0.296875q0.78125 0.28125 1.140625 0.734375q0.375 0.4375 0.515625 1.109375q0.078125 0.421875 0.078125 1.515625l0 2.1875038q0 2.28125 0.109375 2.890625q0.109375 0.59375 0.40625 1.15625l-1.703125 0q-0.265625 -0.515625 -0.328125 -1.1875zm-0.140625 -3.671875q-0.890625 0.375 -2.671875 0.625q-1.015625 0.140625 -1.4375 0.328125q-0.421875 0.1875 -0.65625 0.53125q-0.21875 0.34375 -0.21875 0.78125q0 0.65625 0.5 1.09375q0.5 0.4375 1.453125 0.4375q0.9375 0 1.671875 -0.40625q0.75 -0.421875 1.09375 -1.140625q0.265625 -0.5625 0.265625 -1.640625l0 -0.609375zm10.531967 4.859375l0 -1.421875q-1.125 1.640625 -3.0625 1.640625q-0.859375 0 -1.609375 -0.328125q-0.734375 -0.328125 -1.09375 -0.828125q-0.359375 -0.5 -0.5 -1.21875q-0.109375 -0.46875 -0.109375 -1.53125l0 -5.984379l1.640625 0l0 5.359379q0 1.28125 0.109375 1.734375q0.15625 0.640625 0.65625 1.015625q0.5 0.375 1.234375 0.375q0.734375 0 1.375 -0.375q0.65625 -0.390625 0.921875 -1.03125q0.265625 -0.65625 0.265625 -1.890625l0 -5.187504l1.640625 0l0 9.671879l-1.46875 0zm3.3913422 -2.890625l1.625 -0.25q0.125 0.96875 0.75 1.5q0.625 0.515625 1.75 0.515625q1.125 0 1.671875 -0.453125q0.546875 -0.46875 0.546875 -1.09375q0 -0.546875 -0.484375 -0.875q-0.328125 -0.21875 -1.671875 -0.546875q-1.8125 -0.46875 -2.515625 -0.796875q-0.6875 -0.328125 -1.046875 -0.9062538q-0.359375 -0.59375 -0.359375 -1.3125q0 -0.640625 0.296875 -1.1875q0.296875 -0.5625 0.8125 -0.921875q0.375 -0.28125 1.03125 -0.46875q0.671875 -0.203125 1.421875 -0.203125q1.140625 0 2.0 0.328125q0.859375 0.328125 1.265625 0.890625q0.421875 0.5625 0.578125 1.5l-1.609375 0.21875q-0.109375 -0.75 -0.640625 -1.171875q-0.515625 -0.421875 -1.46875 -0.421875q-1.140625 0 -1.625 0.375q-0.46875 0.375 -0.46875 0.875q0 0.3125 0.1875 0.578125q0.203125 0.265625 0.640625 0.4375q0.234375 0.09375 1.4375 0.421875q1.75 0.4531288 2.4375 0.7500038q0.6875 0.296875 1.078125 0.859375q0.390625 0.5625 0.390625 1.40625q0 0.828125 -0.484375 1.546875q-0.46875 0.71875 -1.375 1.125q-0.90625 0.390625 -2.046875 0.390625q-1.875 0 -2.875 -0.78125q-0.984375 -0.78125 -1.25 -2.328125zm13.5625 1.421875l0.234375 1.453125q-0.6875 0.140625 -1.234375 0.140625q-0.890625 0 -1.390625 -0.28125q-0.484375 -0.28125 -0.6875 -0.734375q-0.203125 -0.46875 -0.203125 -1.9375l0 -5.578129l-1.203125 0l0 -1.265625l1.203125 0l0 -2.390625l1.625 -0.984375l0 3.375l1.65625 0l0 1.265625l-1.65625 0l0 5.671879q0 0.6875 0.078125 0.890625q0.09375 0.203125 0.28125 0.328125q0.203125 0.109375 0.578125 0.109375q0.265625 0 0.71875 -0.0625zm1.5895538 1.46875l0 -9.671879l1.46875 0l0 1.46875q0.5625 -1.03125 1.03125 -1.359375q0.484375 -0.328125 1.0625 -0.328125q0.828125 0 1.6875 0.53125l-0.5625 1.515625q-0.609375 -0.359375 -1.203125 -0.359375q-0.546875 0 -0.96875 0.328125q-0.421875 0.328125 -0.609375 0.890625q-0.28125 0.875 -0.28125 1.9218788l0 5.0625l-1.625 0zm5.618927 -4.84375q0 -2.6875038 1.484375 -3.9687538q1.25 -1.078125 3.046875 -1.078125q2.0 0 3.265625 1.3125q1.2656097 1.296875 1.2656097 3.6093788q0 1.859375 -0.56248474 2.9375q-0.5625 1.0625 -1.640625 1.65625q-1.0625 0.59375 -2.328125 0.59375q-2.03125 0 -3.28125 -1.296875q-1.25 -1.3125 -1.25 -3.765625zm1.6875 0q0 1.859375 0.796875 2.796875q0.8125 0.921875 2.046875 0.921875q1.21875 0 2.03125 -0.921875q0.8125 -0.9375 0.8125 -2.84375q0 -1.7968788 -0.8125 -2.7187538q-0.8125 -0.921875 -2.03125 -0.921875q-1.234375 0 -2.046875 0.921875q-0.796875 0.90625 -0.796875 2.7656288zm9.297592 8.546875l0 -13.375004l1.484375 0l0 1.25q0.53125 -0.734375 1.1875 -1.09375q0.671875 -0.375 1.625 -0.375q1.234375 0 2.171875 0.640625q0.953125 0.625 1.4375 1.796875q0.484375 1.15625 0.484375 2.5468788q0 1.484375 -0.53125 2.671875q-0.53125 1.1875 -1.546875 1.828125q-1.015625 0.625 -2.140625 0.625q-0.8125 0 -1.46875 -0.34375q-0.65625 -0.34375 -1.0625 -0.875l0 4.703125l-1.640625 0zm1.484375 -8.484375q0 1.859375 0.75 2.765625q0.765625 0.890625 1.828125 0.890625q1.09375 0 1.875 -0.921875q0.78125 -0.9375 0.78125 -2.875q0 -1.8437538 -0.765625 -2.7656288q-0.75 -0.921875 -1.8125 -0.921875q-1.046875 0 -1.859375 0.984375q-0.796875 0.96875 -0.796875 2.8437538zm8.891327 4.78125l0 -13.359379l1.640625 0l0 4.796875q1.140625 -1.328125 2.890625 -1.328125q1.078125 0 1.859375 0.421875q0.796875 0.421875 1.140625 1.171875q0.34375 0.75 0.34375 2.171875l0 6.125004l-1.640625 0l0 -6.125004q0 -1.234375 -0.53125 -1.796875q-0.53125 -0.5625 -1.515625 -0.5625q-0.71875 0 -1.359375 0.390625q-0.640625 0.375 -0.921875 1.015625q-0.265625 0.640625 -0.265625 1.7812538l0 5.296875l-1.640625 0zm9.766357 -4.84375q0 -2.6875038 1.484375 -3.9687538q1.25 -1.078125 3.046875 -1.078125q2.0 0 3.265625 1.3125q1.265625 1.296875 1.265625 3.6093788q0 1.859375 -0.5625 2.9375q-0.5625 1.0625 -1.640625 1.65625q-1.0625 0.59375 -2.328125 0.59375q-2.03125 0 -3.28125 -1.296875q-1.25 -1.3125 -1.25 -3.765625zm1.6875 0q0 1.859375 0.796875 2.796875q0.8125 0.921875 2.046875 0.921875q1.21875 0 2.03125 -0.921875q0.8125 -0.9375 0.8125 -2.84375q0 -1.7968788 -0.8125 -2.7187538q-0.8125 -0.921875 -2.03125 -0.921875q-1.234375 0 -2.046875 0.921875q-0.796875 0.90625 -0.796875 2.7656288zm10.797577 4.84375l-1.515625 0l0 -13.359379l1.640625 0l0 4.765625q1.046875 -1.296875 2.65625 -1.296875q0.890625 0 1.6875 0.359375q0.796875 0.359375 1.3125 1.015625q0.515625 0.640625 0.796875 1.5625q0.296875 0.921875 0.296875 1.9687538q0 2.484375 -1.234375 3.84375q-1.21875 1.359375 -2.953125 1.359375q-1.703125 0 -2.6875 -1.4375l0 1.21875zm-0.015625 -4.90625q0 1.734375 0.484375 2.515625q0.765625 1.265625 2.09375 1.265625q1.078125 0 1.859375 -0.9375q0.78125 -0.9375 0.78125 -2.78125q0 -1.8906288 -0.75 -2.7968788q-0.75 -0.90625 -1.828125 -0.90625q-1.0625 0 -1.859375 0.9375q-0.78125 0.9375 -0.78125 2.7031288zm8.891357 -6.562504l0 -1.890625l1.640625 0l0 1.890625l-1.640625 0zm0 11.468754l0 -9.671879l1.640625 0l0 9.671879l-1.640625 0zm10.457306 -1.1875q-0.921875 0.765625 -1.765625 1.09375q-0.828125 0.3125 -1.796875 0.3125q-1.59375 0 -2.453125 -0.78125q-0.859375 -0.78125 -0.859375 -1.984375q0 -0.71875 0.328125 -1.296875q0.328125 -0.59375 0.84375 -0.9375q0.53125 -0.359375 1.1875 -0.546875q0.46875 -0.125 1.453125 -0.25q1.984375 -0.23437881 2.921875 -0.5625038q0.015625 -0.34375 0.015625 -0.421875q0 -1.0 -0.46875 -1.421875q-0.625 -0.546875 -1.875 -0.546875q-1.15625 0 -1.703125 0.40625q-0.546875 0.40625 -0.8125 1.421875l-1.609375 -0.21875q0.21875 -1.015625 0.71875 -1.640625q0.5 -0.640625 1.453125 -0.984375q0.953125 -0.34375 2.1875 -0.34375q1.25 0 2.015625 0.296875q0.78125 0.28125 1.140625 0.734375q0.375 0.4375 0.515625 1.109375q0.078125 0.421875 0.078125 1.515625l0 2.1875038q0 2.28125 0.109375 2.890625q0.109375 0.59375 0.40625 1.15625l-1.703125 0q-0.265625 -0.515625 -0.328125 -1.1875zm-0.140625 -3.671875q-0.890625 0.375 -2.671875 0.625q-1.015625 0.140625 -1.4375 0.328125q-0.421875 0.1875 -0.65625 0.53125q-0.21875 0.34375 -0.21875 0.78125q0 0.65625 0.5 1.09375q0.5 0.4375 1.453125 0.4375q0.9375 0 1.671875 -0.40625q0.75 -0.421875 1.09375 -1.140625q0.265625 -0.5625 0.265625 -1.640625l0 -0.609375z" fill-rule="nonzero"/></g></svg>